<svg xmlns="http://www.w3.org/2000/svg" width="1138.303" height="449.887" viewBox="0 0 1138.303 449.887"><defs><style>      .cls-1 {        fill: #f50000;      }      .cls-2 {        fill: #41693c;      }      .cls-3 {        fill: #c3a555;      }      .cls-4 {        fill: #462891;      }      .cls-5 {        fill: none;      }    </style></defs><g id="Layer_2" data-name="Layer 2"><g id="Layer_1-2" data-name="Layer 1"><g id="Layer_2-2" data-name="Layer 2"><g id="Calque_1" data-name="Calque 1"><g><g><path d="M402.806,166.051v69.454h-9.239V166.051Z"></path><path d="M451.251,235.505V228.7h-.2a12.16,12.16,0,0,1-6.42,6.031A24.539,24.539,0,0,1,435,236.576a22.661,22.661,0,0,1-10.164-2.141,20.881,20.881,0,0,1-7.2-5.738,25.039,25.039,0,0,1-4.328-8.365,34.425,34.425,0,0,1-1.459-10.118,35.431,35.431,0,0,1,1.41-10.115,23.881,23.881,0,0,1,4.279-8.319,20.717,20.717,0,0,1,7.2-5.64,22.869,22.869,0,0,1,10.069-2.092,24.727,24.727,0,0,1,4.181.388,21.13,21.13,0,0,1,4.475,1.315,19.022,19.022,0,0,1,4.233,2.432,13.366,13.366,0,0,1,3.355,3.744h.2V166.051h8.267v69.454Zm-29.72-17.85a18.471,18.471,0,0,0,2.823,5.983,13.777,13.777,0,0,0,4.864,4.184,14.76,14.76,0,0,0,6.954,1.557,13.651,13.651,0,0,0,11.867-5.983,18.136,18.136,0,0,0,2.677-6.08,29.37,29.37,0,0,0,.826-6.906,29.02,29.02,0,0,0-.874-7.151,17.687,17.687,0,0,0-2.774-6.078,14.186,14.186,0,0,0-4.912-4.233,15.352,15.352,0,0,0-7.3-1.606,14.216,14.216,0,0,0-7.1,1.655,13.172,13.172,0,0,0-4.668,4.377,18.985,18.985,0,0,0-2.529,6.227,32.958,32.958,0,0,0-.78,7.2A25.764,25.764,0,0,0,421.531,217.655Z"></path><path d="M505.432,232.3q-5.645,4.28-14.2,4.279a25.857,25.857,0,0,1-10.463-1.946,20.6,20.6,0,0,1-7.441-5.448,23.118,23.118,0,0,1-4.521-8.365,40.227,40.227,0,0,1-1.7-10.6,30.34,30.34,0,0,1,1.749-10.506,25.107,25.107,0,0,1,4.915-8.268A22.276,22.276,0,0,1,481.259,186a22.869,22.869,0,0,1,9.484-1.945,20.643,20.643,0,0,1,11.137,2.768,22.1,22.1,0,0,1,7.1,7.053,27.969,27.969,0,0,1,3.694,9.338,39.831,39.831,0,0,1,.826,9.631H475.857a19.973,19.973,0,0,0,.781,6.273,14.179,14.179,0,0,0,2.82,5.255,13.9,13.9,0,0,0,4.961,3.646,17.082,17.082,0,0,0,7.1,1.364,14.3,14.3,0,0,0,8.607-2.432,11.75,11.75,0,0,0,4.427-7.4h8.172Q511.069,228.017,505.432,232.3Zm-2-32.3a14.184,14.184,0,0,0-3.015-4.523,14.355,14.355,0,0,0-4.475-3.016,14.21,14.21,0,0,0-5.692-1.12,14.45,14.45,0,0,0-5.787,1.12,13.32,13.32,0,0,0-4.426,3.065,14.641,14.641,0,0,0-2.919,4.523,17.28,17.28,0,0,0-1.266,5.5h28.893A17.048,17.048,0,0,0,503.437,200Z"></path><path d="M527.414,185.216v7.977h.192q5.157-9.144,16.342-9.145a21.867,21.867,0,0,1,8.271,1.361,13.62,13.62,0,0,1,5.349,3.8A14.082,14.082,0,0,1,560.437,195a31.173,31.173,0,0,1,.829,7.442V235.51H553V201.46a10,10,0,0,0-2.721-7.392,10.127,10.127,0,0,0-7.492-2.726,16.838,16.838,0,0,0-6.567,1.169,12.33,12.33,0,0,0-4.621,3.306,14.247,14.247,0,0,0-2.771,5.01,20.357,20.357,0,0,0-.924,6.276v28.4h-8.27V185.216Z"></path><path d="M592.781,185.216v7.295h-10.02v31.225a8.99,8.99,0,0,0,.244,2.334,2.387,2.387,0,0,0,.924,1.364,4.085,4.085,0,0,0,1.9.63,27.373,27.373,0,0,0,3.163.147h3.789v7.294h-6.323a29.478,29.478,0,0,1-5.5-.437,8.042,8.042,0,0,1-3.7-1.606,6.842,6.842,0,0,1-2.089-3.306,19.027,19.027,0,0,1-.682-5.643v-32h-8.561v-7.3h8.561V170.137h8.268v15.079Z"></path><path d="M599.98,176.169V166.051h8.27v10.118Zm8.27,9.047v50.289h-8.27V185.216Z"></path><path d="M613.6,192.511v-7.295h8.464V177.73q0-6.13,3.547-9.292t10.363-3.16a21.329,21.329,0,0,1,2.673.193,14.551,14.551,0,0,1,2.676.584v7.2a10.284,10.284,0,0,0-2.336-.535,20.214,20.214,0,0,0-2.334-.147,8,8,0,0,0-4.667,1.168q-1.656,1.165-1.655,4.475v7h9.726v7.295h-9.726v42.994h-8.267V192.511Z"></path><path d="M645.5,176.169V166.051h8.271v10.118Zm8.271,9.047v50.289H645.5V185.216Z"></path><path d="M694.234,193.97a12.555,12.555,0,0,0-8.364-2.628A15.436,15.436,0,0,0,678.378,193a13.375,13.375,0,0,0-4.814,4.377,18.383,18.383,0,0,0-2.578,6.273,34.241,34.241,0,0,0-.78,7.347,27.845,27.845,0,0,0,.829,6.808,18.265,18.265,0,0,0,2.575,5.885,13.055,13.055,0,0,0,4.572,4.135,13.693,13.693,0,0,0,6.714,1.557q6.126,0,9.58-3.212a14.5,14.5,0,0,0,4.233-9.047h8.463q-1.363,9.341-6.956,14.4t-15.225,5.059a26.225,26.225,0,0,1-10.164-1.848,19.658,19.658,0,0,1-7.392-5.254,22.691,22.691,0,0,1-4.475-8.121A33.892,33.892,0,0,1,661.452,211a36.947,36.947,0,0,1,1.459-10.555,24.427,24.427,0,0,1,4.426-8.561,20.8,20.8,0,0,1,7.441-5.738,24.341,24.341,0,0,1,10.409-2.092,30.354,30.354,0,0,1,8.025,1.021,19.553,19.553,0,0,1,6.616,3.163,17.248,17.248,0,0,1,4.716,5.4,19.847,19.847,0,0,1,2.336,7.727h-8.56A12.6,12.6,0,0,0,694.234,193.97Z"></path><path d="M758.531,235.313a11.709,11.709,0,0,1-5.932,1.263,7.112,7.112,0,0,1-5.108-1.8q-1.9-1.8-1.9-5.884a19.819,19.819,0,0,1-7.928,5.884,27.408,27.408,0,0,1-16.247,1.022,15.113,15.113,0,0,1-5.3-2.432,11.657,11.657,0,0,1-3.551-4.331,14.552,14.552,0,0,1-1.312-6.469,14.792,14.792,0,0,1,1.458-7,12.764,12.764,0,0,1,3.841-4.425A17.645,17.645,0,0,1,722,208.565q3.064-.876,6.276-1.459,3.4-.682,6.469-1.021a36.1,36.1,0,0,0,5.4-.973,8.972,8.972,0,0,0,3.7-1.85,4.518,4.518,0,0,0,1.364-3.551,8.271,8.271,0,0,0-1.03-4.381,7.028,7.028,0,0,0-2.628-2.53,10.714,10.714,0,0,0-3.6-1.165,27.065,27.065,0,0,0-3.94-.294,17.5,17.5,0,0,0-8.754,2q-3.5,2-3.8,7.539H713.2A17.821,17.821,0,0,1,715.146,193a14.784,14.784,0,0,1,4.671-5.206,19.662,19.662,0,0,1,6.661-2.869,35.174,35.174,0,0,1,8.026-.874,47.2,47.2,0,0,1,6.76.486,17.764,17.764,0,0,1,6.08,1.988,11.645,11.645,0,0,1,4.377,4.224,13.472,13.472,0,0,1,1.659,7.08v25.82a19.436,19.436,0,0,0,.339,4.273q.339,1.358,2.289,1.358a9.983,9.983,0,0,0,2.529-.388Zm-13.424-25.778a10.393,10.393,0,0,1-4.086,1.694q-2.532.532-5.3.869t-5.6.777a20.6,20.6,0,0,0-5.059,1.4,9.19,9.19,0,0,0-3.649,2.755,7.718,7.718,0,0,0-1.409,4.891,6.624,6.624,0,0,0,.828,3.435,6.886,6.886,0,0,0,2.138,2.276,9.049,9.049,0,0,0,3.065,1.26,17.163,17.163,0,0,0,3.7.385,19.667,19.667,0,0,0,7-1.113,14.714,14.714,0,0,0,4.765-2.808,11.071,11.071,0,0,0,2.722-3.676,9.272,9.272,0,0,0,.878-3.729Z"></path><path d="M785.281,185.216v7.295h-10.02v31.225a8.99,8.99,0,0,0,.244,2.334,2.387,2.387,0,0,0,.924,1.364,4.085,4.085,0,0,0,1.9.63,27.367,27.367,0,0,0,3.162.147h3.79v7.294h-6.323a29.478,29.478,0,0,1-5.5-.437,8.047,8.047,0,0,1-3.7-1.606,6.842,6.842,0,0,1-2.089-3.306,19.027,19.027,0,0,1-.682-5.643v-32H758.43v-7.3h8.561V170.137h8.268v15.079Z"></path><path d="M792.48,176.169V166.051h8.27v10.118Zm8.27,9.047v50.289h-8.27V185.216Z"></path><path d="M809.987,200.05a23.477,23.477,0,0,1,4.667-8.365,21.979,21.979,0,0,1,7.687-5.594,28.153,28.153,0,0,1,21.058,0,22.136,22.136,0,0,1,7.637,5.594,23.533,23.533,0,0,1,4.671,8.365,33.549,33.549,0,0,1,1.556,10.36,33.083,33.083,0,0,1-1.556,10.31,23.565,23.565,0,0,1-4.671,8.316,21.539,21.539,0,0,1-7.637,5.546,28.8,28.8,0,0,1-21.058,0,21.4,21.4,0,0,1-7.687-5.546,23.494,23.494,0,0,1-4.667-8.316,32.93,32.93,0,0,1-1.557-10.31A33.4,33.4,0,0,1,809.987,200.05Zm8.414,18.48a16.975,16.975,0,0,0,3.354,5.937,14.542,14.542,0,0,0,5.011,3.646,15.228,15.228,0,0,0,12.158,0,14.535,14.535,0,0,0,5.01-3.646,17.016,17.016,0,0,0,3.358-5.937,27.754,27.754,0,0,0,0-16.244,17.553,17.553,0,0,0-3.358-5.983,14.323,14.323,0,0,0-5.01-3.694,15.22,15.22,0,0,0-12.158,0,14.326,14.326,0,0,0-5.011,3.694,17.526,17.526,0,0,0-3.354,5.983A27.705,27.705,0,0,0,818.4,218.53Z"></path><path d="M872.339,185.216v7.977h.192q5.159-9.144,16.342-9.145a21.855,21.855,0,0,1,8.27,1.361,13.6,13.6,0,0,1,5.35,3.8A14.082,14.082,0,0,1,905.362,195a31.122,31.122,0,0,1,.829,7.442V235.51H897.92V201.46a9.991,9.991,0,0,0-2.722-7.392,10.127,10.127,0,0,0-7.49-2.726,16.816,16.816,0,0,0-6.567,1.169,12.334,12.334,0,0,0-4.622,3.306,14.272,14.272,0,0,0-2.771,5.01,20.325,20.325,0,0,0-.922,6.276v28.4h-8.271V185.216Z"></path><path d="M423.624,271.43q10.506,0,15.9,5.4t5.4,15.125q0,9.731-5.4,15.176t-15.9,5.35h-21.2v28.405H393.18V271.43ZM420.513,304.7q7.878.1,11.525-3.212t3.648-9.533q0-6.222-3.648-9.485t-11.525-3.258H402.418V304.7Z"></path><path d="M459.908,290.6V301.2h.195a22.392,22.392,0,0,1,7.393-9.048q4.377-2.918,11.09-2.725v8.757a23.365,23.365,0,0,0-8.464,1.361,13.345,13.345,0,0,0-5.641,3.984,16.531,16.531,0,0,0-3.114,6.371,34.349,34.349,0,0,0-.972,8.61v22.374h-8.267V290.6Z"></path><path d="M516.23,337.677q-5.643,4.281-14.2,4.282a25.884,25.884,0,0,1-10.457-1.945,20.581,20.581,0,0,1-7.44-5.45,23.054,23.054,0,0,1-4.521-8.366,40.186,40.186,0,0,1-1.7-10.6,30.29,30.29,0,0,1,1.75-10.506,25.073,25.073,0,0,1,4.914-8.267,22.238,22.238,0,0,1,7.487-5.448,22.9,22.9,0,0,1,9.485-1.948,20.644,20.644,0,0,1,11.139,2.774,22.075,22.075,0,0,1,7.1,7.053,27.969,27.969,0,0,1,3.694,9.338,39.814,39.814,0,0,1,.826,9.629h-37.65a19.991,19.991,0,0,0,.781,6.276,14.17,14.17,0,0,0,2.82,5.251,13.9,13.9,0,0,0,4.961,3.649,17.111,17.111,0,0,0,7.1,1.361,14.3,14.3,0,0,0,8.607-2.431,11.748,11.748,0,0,0,4.427-7.393h8.172Q521.87,333.4,516.23,337.677Zm-1.994-32.3a14.2,14.2,0,0,0-3.015-4.524,14.41,14.41,0,0,0-4.475-3.013,14.148,14.148,0,0,0-5.692-1.119,14.4,14.4,0,0,0-5.787,1.119,13.382,13.382,0,0,0-4.426,3.062,14.751,14.751,0,0,0-2.918,4.524,17.28,17.28,0,0,0-1.266,5.5h28.891a17,17,0,0,0-1.311-5.544Z"></path><path d="M538.214,290.6v7.393h.192q5.643-8.556,16.247-8.561a18.31,18.31,0,0,1,8.464,1.948,10.912,10.912,0,0,1,5.349,6.613,17.558,17.558,0,0,1,6.662-6.322,18.788,18.788,0,0,1,9.1-2.239,26.332,26.332,0,0,1,6.857.829,14.222,14.222,0,0,1,5.255,2.578,11.717,11.717,0,0,1,3.4,4.521,16.536,16.536,0,0,1,1.213,6.665v36.868h-8.267V307.911a23.538,23.538,0,0,0-.389-4.377,8.965,8.965,0,0,0-1.458-3.551,7.328,7.328,0,0,0-2.967-2.382,11.782,11.782,0,0,0-4.911-.875q-6.13,0-9.633,3.5a12.628,12.628,0,0,0-3.5,9.338v31.323h-8.267V307.911a21.351,21.351,0,0,0-.438-4.475,9.521,9.521,0,0,0-1.508-3.551,7.064,7.064,0,0,0-2.872-2.333,11.115,11.115,0,0,0-4.618-.826,12.351,12.351,0,0,0-6.177,1.459,14.022,14.022,0,0,0-6.518,7.732,11.983,11.983,0,0,0-.729,3.649v31.323H530.43V290.6Z"></path><path d="M611.459,281.549V271.43h8.271v10.115Zm8.271,9.047v50.293h-8.271V290.6Z"></path><path d="M646.674,265.987l9.338,15.758h-6.224l-13.62-15.758Zm26.362,58.948h-8.173a11.75,11.75,0,0,1-4.425,7.393,14.3,14.3,0,0,1-8.607,2.431,17.112,17.112,0,0,1-7.1-1.361,13.863,13.863,0,0,1-4.961-3.649,14.17,14.17,0,0,1-2.82-5.251,19.9,19.9,0,0,1-.78-6.276h37.645a39.97,39.97,0,0,0-.826-9.629,28.016,28.016,0,0,0-3.7-9.338,22.1,22.1,0,0,0-7.1-7.053,20.654,20.654,0,0,0-11.139-2.772,22.9,22.9,0,0,0-9.485,1.948,22.238,22.238,0,0,0-7.487,5.448,25.029,25.029,0,0,0-4.914,8.267,30.267,30.267,0,0,0-1.75,10.506,40.1,40.1,0,0,0,1.7,10.6,23.075,23.075,0,0,0,4.52,8.366,20.58,20.58,0,0,0,7.442,5.45,25.861,25.861,0,0,0,10.457,1.945q8.56,0,14.2-4.282T673.036,324.935Zm-7.978-14H636.167a17.22,17.22,0,0,1,1.266-5.5,14.705,14.705,0,0,1,2.919-4.524,13.336,13.336,0,0,1,4.426-3.062,14.39,14.39,0,0,1,5.786-1.119,14.155,14.155,0,0,1,5.692,1.119,14.422,14.422,0,0,1,4.475,3.013,14.253,14.253,0,0,1,3.016,4.524A17.024,17.024,0,0,1,665.058,310.93Z"></path><path d="M687.43,290.6V301.2h.2a22.392,22.392,0,0,1,7.393-9.048q4.377-2.918,11.09-2.725v8.757a23.356,23.356,0,0,0-8.463,1.361,13.339,13.339,0,0,0-5.643,3.988,16.531,16.531,0,0,0-3.114,6.371,34.4,34.4,0,0,0-.972,8.61v22.374h-8.267V290.6Z"></path><path d="M743.753,337.677q-5.643,4.281-14.2,4.282a25.877,25.877,0,0,1-10.456-1.945,20.58,20.58,0,0,1-7.442-5.45,23.092,23.092,0,0,1-4.521-8.366,40.268,40.268,0,0,1-1.7-10.6,30.314,30.314,0,0,1,1.75-10.506,25.048,25.048,0,0,1,4.915-8.267,22.238,22.238,0,0,1,7.487-5.448,22.9,22.9,0,0,1,9.485-1.948,20.644,20.644,0,0,1,11.139,2.774,22.075,22.075,0,0,1,7.1,7.053,27.973,27.973,0,0,1,3.7,9.338,39.864,39.864,0,0,1,.826,9.629H714.18a19.991,19.991,0,0,0,.781,6.276,14.17,14.17,0,0,0,2.82,5.251,13.887,13.887,0,0,0,4.961,3.649,17.111,17.111,0,0,0,7.1,1.361,14.3,14.3,0,0,0,8.607-2.431,11.748,11.748,0,0,0,4.432-7.394h8.172Q749.392,333.4,743.753,337.677Zm-2-32.3a14.186,14.186,0,0,0-3.016-4.524,14.405,14.405,0,0,0-4.474-3.013,14.16,14.16,0,0,0-5.687-1.11,14.4,14.4,0,0,0-5.787,1.119,13.375,13.375,0,0,0-4.427,3.062,14.721,14.721,0,0,0-2.918,4.524,17.22,17.22,0,0,0-1.266,5.5H743.07a17,17,0,0,0-1.312-5.553Z"></path><path d="M764.281,329.652a8.728,8.728,0,0,0,3.065,3.015,13.694,13.694,0,0,0,4.279,1.606,24.47,24.47,0,0,0,4.912.486,30.518,30.518,0,0,0,4.085-.29,15.02,15.02,0,0,0,3.941-1.071,7.41,7.41,0,0,0,2.966-2.288,6.085,6.085,0,0,0,1.165-3.841,5.5,5.5,0,0,0-2.432-4.863,20.755,20.755,0,0,0-6.082-2.676q-3.648-1.019-7.927-1.847a40.847,40.847,0,0,1-7.928-2.334,16.4,16.4,0,0,1-6.08-4.233q-2.432-2.719-2.432-7.585a12.044,12.044,0,0,1,1.7-6.518,13.878,13.878,0,0,1,4.38-4.426,20.06,20.06,0,0,1,6.028-2.529,27.836,27.836,0,0,1,6.665-.829,39.763,39.763,0,0,1,7.879.731,18.252,18.252,0,0,1,6.371,2.53,13.1,13.1,0,0,1,4.426,4.863,18.436,18.436,0,0,1,1.945,7.637H786.94a8.409,8.409,0,0,0-1.263-4.037,8.317,8.317,0,0,0-2.725-2.579,12.406,12.406,0,0,0-3.649-1.41,18.682,18.682,0,0,0-4.034-.437,24.858,24.858,0,0,0-3.747.29,12.691,12.691,0,0,0-3.453,1.022,6.96,6.96,0,0,0-2.529,1.945,4.9,4.9,0,0,0-.973,3.163,4.652,4.652,0,0,0,1.508,3.551,12.032,12.032,0,0,0,3.841,2.334,33.612,33.612,0,0,0,5.255,1.556q2.917.633,5.836,1.312a62.968,62.968,0,0,1,6.08,1.655,19.827,19.827,0,0,1,5.252,2.579,12.615,12.615,0,0,1,3.7,4.037,11.873,11.873,0,0,1,1.41,6.028,14.02,14.02,0,0,1-1.9,7.589,14.8,14.8,0,0,1-4.961,4.863,20.746,20.746,0,0,1-6.908,2.579,40.778,40.778,0,0,1-7.637.731,35.274,35.274,0,0,1-7.977-.878,19.472,19.472,0,0,1-6.71-2.869,14.643,14.643,0,0,1-4.671-5.251,18.179,18.179,0,0,1-1.945-7.928h8.267A9.269,9.269,0,0,0,764.281,329.652Z"></path><path d="M839.857,271.43l36.575,56.321h.195V271.43h8.753v69.455H875.266L838.98,285.149h-.2v55.74h-8.754V271.43Z"></path><path d="M941.12,340.693a11.716,11.716,0,0,1-5.934,1.266,7.115,7.115,0,0,1-5.108-1.8q-1.9-1.8-1.9-5.885a19.776,19.776,0,0,1-7.928,5.885A27.351,27.351,0,0,1,904,341.18a15.015,15.015,0,0,1-5.3-2.431,11.685,11.685,0,0,1-3.551-4.328,14.58,14.58,0,0,1-1.312-6.469,14.78,14.78,0,0,1,1.459-7,12.732,12.732,0,0,1,3.842-4.426,17.622,17.622,0,0,1,5.447-2.578q3.064-.877,6.276-1.459,3.4-.679,6.469-1.022a35.684,35.684,0,0,0,5.4-.973,8.978,8.978,0,0,0,3.7-1.847,4.5,4.5,0,0,0,1.364-3.551,8.272,8.272,0,0,0-1.021-4.377,7,7,0,0,0-2.628-2.529,10.721,10.721,0,0,0-3.6-1.169,27.5,27.5,0,0,0-3.94-.29,17.477,17.477,0,0,0-8.755,1.994q-3.5,2-3.794,7.539h-8.268a17.843,17.843,0,0,1,1.945-7.881,14.791,14.791,0,0,1,4.67-5.2,19.628,19.628,0,0,1,6.662-2.869,35.182,35.182,0,0,1,8.025-.878,47.469,47.469,0,0,1,6.76.486,17.7,17.7,0,0,1,6.081,1.992,11.642,11.642,0,0,1,4.377,4.22,13.5,13.5,0,0,1,1.655,7.087V329.03a19.284,19.284,0,0,0,.339,4.269q.34,1.359,2.288,1.358a10,10,0,0,0,2.53-.388ZM927.7,314.915a10.279,10.279,0,0,1-4.087,1.695q-2.53.532-5.3.871t-5.594.774a20.733,20.733,0,0,0-5.06,1.4,9.18,9.18,0,0,0-3.648,2.759,7.7,7.7,0,0,0-1.41,4.888,6.632,6.632,0,0,0,.829,3.437,6.847,6.847,0,0,0,2.138,2.276,9.046,9.046,0,0,0,3.064,1.257,16.914,16.914,0,0,0,3.7.385,19.757,19.757,0,0,0,7-1.11,14.765,14.765,0,0,0,4.766-2.808,11.131,11.131,0,0,0,2.722-3.679,9.29,9.29,0,0,0,.878-3.725Z"></path><path d="M967.867,290.6v7.3h-10.02v31.225a9.057,9.057,0,0,0,.245,2.337,2.385,2.385,0,0,0,.923,1.361,4.092,4.092,0,0,0,1.9.633,27.385,27.385,0,0,0,3.162.144h3.793v7.3h-6.322a29.736,29.736,0,0,1-5.5-.438,8.117,8.117,0,0,1-3.7-1.605,6.864,6.864,0,0,1-2.089-3.307,19.06,19.06,0,0,1-.682-5.643v-32h-8.561v-7.3h8.565V275.521h8.267V290.6Z"></path><path d="M975.065,281.549V271.43h8.269v10.115Zm8.269,9.047v50.293h-8.27V290.6Z"></path><path d="M992.574,305.43a23.538,23.538,0,0,1,4.668-8.366,22.037,22.037,0,0,1,7.686-5.594,28.153,28.153,0,0,1,21.058,0,22.13,22.13,0,0,1,7.637,5.594,23.545,23.545,0,0,1,4.671,8.366,33.484,33.484,0,0,1,1.557,10.359,33.046,33.046,0,0,1-1.557,10.314,23.6,23.6,0,0,1-4.671,8.316,21.585,21.585,0,0,1-7.637,5.545,28.8,28.8,0,0,1-21.058,0,21.489,21.489,0,0,1-7.686-5.545,23.576,23.576,0,0,1-4.668-8.316,33.013,33.013,0,0,1-1.557-10.314A33.454,33.454,0,0,1,992.574,305.43Zm8.414,18.483a16.954,16.954,0,0,0,3.356,5.933,14.512,14.512,0,0,0,5.01,3.649,15.259,15.259,0,0,0,12.157,0,14.493,14.493,0,0,0,5.01-3.649,16.986,16.986,0,0,0,3.359-5.933,27.774,27.774,0,0,0,0-16.245,17.544,17.544,0,0,0-3.359-5.982,14.278,14.278,0,0,0-5.01-3.7,15.259,15.259,0,0,0-12.157,0,14.287,14.287,0,0,0-5.01,3.7,17.5,17.5,0,0,0-3.356,5.982A27.725,27.725,0,0,0,1000.988,323.913Z"></path><path d="M1054.927,290.6v7.977h.193q5.156-9.144,16.342-9.145a21.823,21.823,0,0,1,8.271,1.364,13.628,13.628,0,0,1,5.349,3.793,14.107,14.107,0,0,1,2.869,5.787,31.222,31.222,0,0,1,.829,7.441v33.076h-8.271V306.841a10,10,0,0,0-2.722-7.393,10.139,10.139,0,0,0-7.49-2.722,16.894,16.894,0,0,0-6.568,1.165,12.359,12.359,0,0,0-4.62,3.31,14.194,14.194,0,0,0-2.772,5.01,20.307,20.307,0,0,0-.923,6.273v28.405h-8.271V290.6Z"></path><path d="M1105.121,329.652a8.736,8.736,0,0,0,3.065,3.015,13.707,13.707,0,0,0,4.278,1.606,24.494,24.494,0,0,0,4.913.486,30.688,30.688,0,0,0,4.086-.29,15,15,0,0,0,3.939-1.071,7.406,7.406,0,0,0,2.967-2.288,6.085,6.085,0,0,0,1.165-3.841,5.506,5.506,0,0,0-2.431-4.863,20.788,20.788,0,0,0-6.078-2.677q-3.647-1.018-7.927-1.847a40.868,40.868,0,0,1-7.928-2.334,16.415,16.415,0,0,1-6.081-4.233q-2.431-2.719-2.431-7.585a12.061,12.061,0,0,1,1.7-6.518,13.889,13.889,0,0,1,4.38-4.426,20.077,20.077,0,0,1,6.029-2.529,27.834,27.834,0,0,1,6.664-.829,39.756,39.756,0,0,1,7.879.731,18.236,18.236,0,0,1,6.371,2.53,13.056,13.056,0,0,1,4.426,4.863,18.405,18.405,0,0,1,1.945,7.637h-8.267a8.409,8.409,0,0,0-1.263-4.037,8.317,8.317,0,0,0-2.725-2.579,12.4,12.4,0,0,0-3.649-1.41,18.684,18.684,0,0,0-4.035-.437,24.865,24.865,0,0,0-3.746.29,12.708,12.708,0,0,0-3.454,1.022,6.969,6.969,0,0,0-2.529,1.945,4.922,4.922,0,0,0-.973,3.163,4.659,4.659,0,0,0,1.508,3.551,12.059,12.059,0,0,0,3.842,2.334,33.665,33.665,0,0,0,5.254,1.556q2.919.633,5.836,1.312a62.909,62.909,0,0,1,6.081,1.655,19.791,19.791,0,0,1,5.251,2.579,12.583,12.583,0,0,1,3.7,4.037,11.852,11.852,0,0,1,1.41,6.028,14.012,14.012,0,0,1-1.9,7.589,14.789,14.789,0,0,1-4.961,4.863,20.725,20.725,0,0,1-6.906,2.578,40.78,40.78,0,0,1-7.638.731,35.274,35.274,0,0,1-7.977-.878,19.472,19.472,0,0,1-6.71-2.869,14.643,14.643,0,0,1-4.671-5.251,18.207,18.207,0,0,1-1.945-7.928h8.268A9.274,9.274,0,0,0,1105.121,329.652Z"></path><path d="M438.8,376.815V384.6H402.418v22.083h31.908v7.781H402.418v31.809H393.18V376.815Z"></path><path d="M445.7,386.93V376.815h8.27V386.93Zm8.27,9.047v50.292H445.7V395.977Z"></path><path d="M471.87,395.977v10.6h.2a22.372,22.372,0,0,1,7.392-9.047q4.377-2.919,11.091-2.726v8.757a23.386,23.386,0,0,0-8.472,1.369,13.341,13.341,0,0,0-5.643,3.989,16.514,16.514,0,0,0-3.113,6.371,34.3,34.3,0,0,0-.973,8.61v22.373h-8.267v-50.3Z"></path><path d="M500.662,435.03a8.755,8.755,0,0,0,3.065,3.016,13.745,13.745,0,0,0,4.279,1.605,24.413,24.413,0,0,0,4.912.487,30.511,30.511,0,0,0,4.086-.291,15.039,15.039,0,0,0,3.94-1.07,7.413,7.413,0,0,0,2.967-2.288,6.092,6.092,0,0,0,1.165-3.842,5.507,5.507,0,0,0-2.432-4.863,20.741,20.741,0,0,0-6.077-2.676q-3.648-1.019-7.928-1.848a40.955,40.955,0,0,1-7.928-2.333,16.42,16.42,0,0,1-6.08-4.233q-2.43-2.721-2.432-7.586a12.058,12.058,0,0,1,1.7-6.517,13.889,13.889,0,0,1,4.38-4.426,20.073,20.073,0,0,1,6.028-2.53,27.893,27.893,0,0,1,6.665-.829,39.749,39.749,0,0,1,7.879.731,18.263,18.263,0,0,1,6.371,2.53,13.068,13.068,0,0,1,4.425,4.863,18.387,18.387,0,0,1,1.946,7.637h-8.268a7.911,7.911,0,0,0-3.988-6.615,12.33,12.33,0,0,0-3.649-1.41,18.607,18.607,0,0,0-4.034-.438,24.879,24.879,0,0,0-3.747.291,12.71,12.71,0,0,0-3.453,1.021,6.96,6.96,0,0,0-2.529,1.946,4.913,4.913,0,0,0-.973,3.162,4.651,4.651,0,0,0,1.508,3.551,12.054,12.054,0,0,0,3.841,2.334,33.648,33.648,0,0,0,5.255,1.557q2.917.633,5.836,1.312a62.89,62.89,0,0,1,6.08,1.655,19.794,19.794,0,0,1,5.252,2.578,12.583,12.583,0,0,1,3.7,4.037,11.858,11.858,0,0,1,1.41,6.029,14.006,14.006,0,0,1-1.9,7.588,14.765,14.765,0,0,1-4.954,4.865,20.727,20.727,0,0,1-6.906,2.579,40.946,40.946,0,0,1-7.637.731,35.338,35.338,0,0,1-7.977-.878,19.5,19.5,0,0,1-6.711-2.869,14.634,14.634,0,0,1-4.67-5.252,18.179,18.179,0,0,1-1.945-7.928H499.4A9.272,9.272,0,0,0,500.662,435.03Z"></path><path d="M562.042,395.977v7.3h-10.02V434.5a9.049,9.049,0,0,0,.245,2.336,2.38,2.38,0,0,0,.923,1.361,4.079,4.079,0,0,0,1.9.634,27.609,27.609,0,0,0,3.162.143h3.793v7.3h-6.324a29.807,29.807,0,0,1-5.5-.437,8.1,8.1,0,0,1-3.7-1.606,6.858,6.858,0,0,1-2.089-3.306,19.027,19.027,0,0,1-.682-5.643v-32h-8.561v-7.3h8.561V380.9h8.267v15.076Z"></path><path d="M604.453,376.815l36.575,56.321h.2V376.815h8.752v69.454H639.862L603.581,390.53h-.2v55.739h-8.754V376.815Z"></path><path d="M705.716,446.073a11.7,11.7,0,0,1-5.934,1.267,7.112,7.112,0,0,1-5.107-1.8q-1.9-1.8-1.9-5.885a19.767,19.767,0,0,1-7.928,5.885,27.343,27.343,0,0,1-16.247,1.022,15,15,0,0,1-5.3-2.432,11.678,11.678,0,0,1-3.552-4.328,14.6,14.6,0,0,1-1.312-6.469,14.8,14.8,0,0,1,1.459-7,12.732,12.732,0,0,1,3.842-4.426,17.668,17.668,0,0,1,5.447-2.578q3.064-.876,6.276-1.459,3.4-.68,6.469-1.021a36.061,36.061,0,0,0,5.4-.973,8.992,8.992,0,0,0,3.694-1.847,4.511,4.511,0,0,0,1.365-3.552,8.27,8.27,0,0,0-1.022-4.376,7.01,7.01,0,0,0-2.627-2.53,10.739,10.739,0,0,0-3.6-1.168,27.478,27.478,0,0,0-3.94-.291,17.472,17.472,0,0,0-8.753,1.994q-3.5,2-3.8,7.54h-8.267a17.833,17.833,0,0,1,1.945-7.882,14.809,14.809,0,0,1,4.67-5.2,19.675,19.675,0,0,1,6.662-2.869,35.184,35.184,0,0,1,8.026-.878,47.467,47.467,0,0,1,6.759.487,17.718,17.718,0,0,1,6.081,1.991,11.627,11.627,0,0,1,4.376,4.221,13.476,13.476,0,0,1,1.655,7.087v25.82a19.349,19.349,0,0,0,.34,4.27q.339,1.359,2.287,1.358a9.985,9.985,0,0,0,2.53-.389ZM692.292,420.3a10.3,10.3,0,0,1-4.086,1.694q-2.532.533-5.3.872t-5.594.774a20.6,20.6,0,0,0-5.059,1.4,9.183,9.183,0,0,0-3.649,2.758,7.7,7.7,0,0,0-1.41,4.888,6.636,6.636,0,0,0,.829,3.438,6.843,6.843,0,0,0,2.138,2.275,9.017,9.017,0,0,0,3.064,1.257,16.977,16.977,0,0,0,3.7.386,19.757,19.757,0,0,0,7-1.11,14.811,14.811,0,0,0,4.766-2.808,11.145,11.145,0,0,0,2.722-3.68,9.29,9.29,0,0,0,.878-3.725Z"></path><path d="M732.464,395.977v7.3H722.443V434.5a9.049,9.049,0,0,0,.245,2.336,2.377,2.377,0,0,0,.924,1.361,4.079,4.079,0,0,0,1.9.634,27.589,27.589,0,0,0,3.162.143h3.793v7.3h-6.322a29.807,29.807,0,0,1-5.5-.437,8.118,8.118,0,0,1-3.7-1.606,6.871,6.871,0,0,1-2.088-3.306,19.027,19.027,0,0,1-.682-5.643v-32h-8.561v-7.3h8.566V380.9h8.268v15.076Z"></path><path d="M739.661,386.93V376.815h8.27V386.93Zm8.27,9.047v50.292h-8.27V395.977Z"></path><path d="M757.17,410.811a23.513,23.513,0,0,1,4.669-8.365,22.025,22.025,0,0,1,7.685-5.594,28.144,28.144,0,0,1,21.058,0,22.133,22.133,0,0,1,7.638,5.594,23.539,23.539,0,0,1,4.67,8.365,33.514,33.514,0,0,1,1.557,10.359,33.046,33.046,0,0,1-1.557,10.314,23.58,23.58,0,0,1-4.67,8.316,21.585,21.585,0,0,1-7.638,5.545,28.782,28.782,0,0,1-21.058,0,21.476,21.476,0,0,1-7.685-5.545,23.53,23.53,0,0,1-4.669-8.316,33.016,33.016,0,0,1-1.556-10.314A33.483,33.483,0,0,1,757.17,410.811Zm8.415,18.483a16.956,16.956,0,0,0,3.355,5.934,14.556,14.556,0,0,0,5.01,3.649,15.261,15.261,0,0,0,12.158,0,14.55,14.55,0,0,0,5.01-3.649,17.012,17.012,0,0,0,3.358-5.934,27.771,27.771,0,0,0,0-16.244,17.562,17.562,0,0,0-3.358-5.983,14.312,14.312,0,0,0-5.01-3.7,15.261,15.261,0,0,0-12.158,0,14.3,14.3,0,0,0-5.01,3.7,17.5,17.5,0,0,0-3.355,5.983A27.689,27.689,0,0,0,765.585,429.294Z"></path><path d="M819.524,395.977v7.977h.192q5.157-9.144,16.341-9.146a21.8,21.8,0,0,1,8.271,1.365,13.6,13.6,0,0,1,5.349,3.792,14.1,14.1,0,0,1,2.87,5.787,31.172,31.172,0,0,1,.828,7.442v33.075h-8.27V412.221a9.993,9.993,0,0,0-2.725-7.391,10.135,10.135,0,0,0-7.489-2.722,16.9,16.9,0,0,0-6.568,1.166,12.356,12.356,0,0,0-4.62,3.309,14.176,14.176,0,0,0-2.771,5.01,20.278,20.278,0,0,0-.924,6.273v28.405h-8.271V395.977Z"></path><path d="M869.717,435.03a8.747,8.747,0,0,0,3.065,3.016,13.735,13.735,0,0,0,4.279,1.605,24.413,24.413,0,0,0,4.912.487,30.511,30.511,0,0,0,4.086-.291,15.032,15.032,0,0,0,3.939-1.07,7.413,7.413,0,0,0,2.967-2.288,6.087,6.087,0,0,0,1.166-3.842,5.505,5.505,0,0,0-2.432-4.863,20.741,20.741,0,0,0-6.077-2.676q-3.648-1.019-7.928-1.848a40.955,40.955,0,0,1-7.928-2.333,16.423,16.423,0,0,1-6.081-4.233q-2.431-2.721-2.431-7.586a12.058,12.058,0,0,1,1.7-6.517,13.9,13.9,0,0,1,4.38-4.426,20.079,20.079,0,0,1,6.029-2.53,27.885,27.885,0,0,1,6.664-.829,39.749,39.749,0,0,1,7.879.731,18.256,18.256,0,0,1,6.371,2.53,13.056,13.056,0,0,1,4.426,4.863,18.407,18.407,0,0,1,1.946,7.637H892.38a7.912,7.912,0,0,0-3.987-6.615,12.351,12.351,0,0,0-3.649-1.41,18.683,18.683,0,0,0-4.034-.438,24.859,24.859,0,0,0-3.747.291,12.689,12.689,0,0,0-3.453,1.021,6.978,6.978,0,0,0-2.531,1.946,4.912,4.912,0,0,0-.971,3.162,4.648,4.648,0,0,0,1.507,3.551,12.037,12.037,0,0,0,3.842,2.334,33.477,33.477,0,0,0,5.255,1.557q2.918.633,5.835,1.312a62.988,62.988,0,0,1,6.081,1.655,19.824,19.824,0,0,1,5.252,2.578,12.605,12.605,0,0,1,3.7,4.037,11.879,11.879,0,0,1,1.41,6.029,14.026,14.026,0,0,1-1.9,7.588,14.789,14.789,0,0,1-4.961,4.863,20.741,20.741,0,0,1-6.907,2.579,40.864,40.864,0,0,1-7.638.731,35.323,35.323,0,0,1-7.976-.878,19.485,19.485,0,0,1-6.711-2.869,14.622,14.622,0,0,1-4.669-5.252,18.152,18.152,0,0,1-1.946-7.928h8.268A9.262,9.262,0,0,0,869.717,435.03Z"></path></g><g><path d="M347.417,173.871c-.261-1-.847-.778-.795-.19.213,5.017-3.032,7.075-7.553,7.992a14.557,14.557,0,0,1-5.718.294c-.509-.086-1.143-.017-1.391-.675-.289-.743-.14-1.21,2.122-1.453,10.129-1.089,9.913-9.687,9.913-10.673,0-.759-.081-2.324-.986-2.392h-.019c-.054.007-.214.074-.375.5a3.367,3.367,0,0,0-.129.426,11.893,11.893,0,0,1-6.938,7.726c-1.29.484-6.115,2.664-8.187.934-.981-1.522,4.657-2.318,7.166-3.494a12.531,12.531,0,0,0,3.306-2.353c3.085-4.5,1.662-15.621-.7-15.552-1.471-.207-.434,2.941-.4,4.325.033,2.751-.139,7.11-2.48,8.632a15.678,15.678,0,0,1-9.708,2.924,1.993,1.993,0,0,1-1.934-1.142c-.1-.329.007-.519.313-.571a13.254,13.254,0,0,1,1.66-.207,7.657,7.657,0,0,0,3.443-.986,11.7,11.7,0,0,0,5.883-9.671,26.019,26.019,0,0,0-.156-4.359c-.535-4.93-2.845-10.172-6.343-12.784-.466-.19-.915-.381-.986.19.779,1,6.271,9.6,3.541,17.541-.963,2.838-4.3,4.228-7.98,3.674-.236-.069-.027-.283.055-.335,4.374-2.993,4.485-7.663,2.832-13.3-2.105-7.248-5.216-11.573-6.816-11.867-1.554.83,3.022,6.072,3.346,12.542.239,4.7-1.474,7.871-5.263,9.843a2.6,2.6,0,0,1-2.787.173c-6.241-3.114-12.546.346-13.333,4.6a4.19,4.19,0,0,1-1.3,2.2,17.711,17.711,0,0,1-5.406,3.459,26.37,26.37,0,0,1-11.605,2.595,87.332,87.332,0,0,0-12.5.658c-2.715.4-5.5.38-8.274.536a1.151,1.151,0,0,1-1.249-.433c.511-.691,1.4-1.02,2.024-1.591A108.427,108.427,0,0,0,272.78,160a55.526,55.526,0,0,0,8.684-13.839c.9-2.163,2.4-4.014,5.164-4.256,2.473-.207,4.616-1.02,7.05-1.28,3.584-.363,6.329-1.8,7.087-5.207a9.365,9.365,0,0,1,1.823-3.079c1.35-1.574,4.243-3.114,5.464-4.775a12.863,12.863,0,0,1,4.628-3.931,8.285,8.285,0,0,1,7.752.225c.507.26.83-1.4-1.035-2.543a9.117,9.117,0,0,0-3.873-1.366,13.619,13.619,0,0,0-7.519,1.072c-2.4,1.038-8.39,7.318-9.369,5.8-.145-.847,7.894-8.424,9.929-10.275,1.987-1.8,3.883-2.872,7.3-1.211.758.363-1.582-3.65-5.517-3.547-3.814.1-5.634,2.042-7.6,3.253-.969.588-3.9,4.03-5.832,3.736-.534-1.159,6.14-8.719,7.7-10.293,1.541-1.574,3.349-2.058,6.145-1.557.4.07,1.279-.4.2-1.626-2.143-1.366-4.309-1.989-6.154-1.142a15.3,15.3,0,0,0-5.236,3.824c-1.639,1.833-3.317,3.615-4.974,5.431-.695.762-1.857,1.713-2.926.762-1.162-.623.293-1.99.767-2.7,2.649-3.927,4.76-6.3,6.841-10,1.316-2.353,1.739-2.266,4.728-2.11,1.983.121,2.912-1.125,1.954-1.99a5.573,5.573,0,0,0-4.748-1.47,8.835,8.835,0,0,0-4.419,1.885,14.508,14.508,0,0,0-4.148,5.38,14.035,14.035,0,0,1-1.329,2.215c-1.164,1.726-2.974,2.614-5.587,2.684a.511.511,0,0,1-.451-.3c-.5-3.4,1.448-5.7,2.55-8.434,1.931-4.827,5.181-6.626,10.285-7.8.83-.208-.125-1.038-.395-1.159a5.69,5.69,0,0,0-3.99-.519c-3.046.778-6.044,1.5-8.073,3.823a22.793,22.793,0,0,0-5.806,12.127,3.809,3.809,0,0,1-2.875,3.529c-5.29,1.626-8.61,5-9.672,10.258a22.757,22.757,0,0,1-2.571,6.4,2.883,2.883,0,0,1-.49.65,17.521,17.521,0,0,1-2.964,1.3Q252.4,132.2,243.124,135.9c-2.825,1.125-5.412,2.6-8.294,3.668-2.68,1-5.16,2.318-7.72,3.511-4.2,1.99-8.907,3.183-13.41,4.706-1.815.6-10.14,1.349-12.079,1.73a87.546,87.546,0,0,1-11.683,1.712c-1.806.121-1.976.156-2.365-1.522-.794-3.339-10.831-27.9,24.076-52.053,3.295-2.284,26.846-10.709,31.338-11.764,5.75-1.315,11.7-2.266,17.023-4.342A36.671,36.671,0,0,0,268.5,75.59a12.056,12.056,0,0,0,3.985-6.66,2.7,2.7,0,0,0-2.5-3.218c-1.568.5-2.752,1.519-4.58,1.857-.046.01-.052-.023-.052-.026a9.961,9.961,0,0,0-.194-1.623c-.22-.744-.341-1.73-1.43-1.92-.95-.173-.852.744-.954,1.366a1.755,1.755,0,0,1-.124.554,5.3,5.3,0,0,1-4.25,3.468c-.082,0-.1-.052-.1-.077a4.982,4.982,0,0,0-.182-3.357,1.371,1.371,0,0,0-.784-.847.447.447,0,0,0-.594.214.429.429,0,0,0-.035.114,13.346,13.346,0,0,0-.6,2.042c-.527,2.464-.733,2.67-3.8,2.132h0c-.247-.01-.128-.237-.128-.237h0a5.907,5.907,0,0,0,.226-3.257c-.106-.208-.095-.294-.624-.415-1.17-.121-.991.536-1.258,1.245-.208.589-.452,1.16-.642,1.765-.319.9-1.007,1.142-2.161.8a2.59,2.59,0,0,1-2.093-1.972,9.908,9.908,0,0,1-.2-1.656,2.625,2.625,0,0,0-.314-1.424,1.382,1.382,0,0,0-.912-.743.647.647,0,0,0-.175-.018c-.329,0-.372.294-.417.571a15.7,15.7,0,0,0-.37,2.3c-.06,2.46-1.262,2.073-2.806,1.191a1.854,1.854,0,0,1-.63-.815,12.587,12.587,0,0,1-.594-2.348c-.3-2.647.958-3.875,3.651-4.93a4.1,4.1,0,0,1,1.821-.319c.039,0,.345.016.4.265h0c.088.511.164,1,.253,1.49a2.393,2.393,0,0,0,.364,1,1.136,1.136,0,0,0,.652.328c.7.1.9-.432.934-.986.082-.847.11-1.712.12-2.577.018-.4-.072-.831.457-.917.942-.132,1.628-.756,2.812-.774.064.011.185.045.207.153.162.97.276,1.827.465,2.679a1.048,1.048,0,0,0,.78.814.606.606,0,0,0,.76-.4c0-.017.01-.034.014-.052a7.227,7.227,0,0,0,.122-2.56c-.049-.762-.16-1.627.668-1.852.874-.243,2.129-1.148,3.235-1.156a.4.4,0,0,1,.3.206h0a7.987,7.987,0,0,1,.4,2.647c.026.394-.1.828.3,1.055a.974.974,0,0,0,1.288-.311,3.1,3.1,0,0,0,.716-1.5c.207-.8.4-1.592.639-2.388a1.832,1.832,0,0,1,1.894-1.485h0a.541.541,0,0,1,.562.518v.013c.163,2.232-.539,6.123,1.024,5.915,1.127.225,1.621-4.411,1.3-6.85a4.639,4.639,0,0,1,1.039-3.944A9.534,9.534,0,0,0,268.622,41c-.107-1.021-.056-2.024-.076-3.045-.312-1.989-.554-3.962-2.4-5.864-2.7-2.786-5.955-4.6-9.5-2.959a39.25,39.25,0,0,1-4.722,1.99c-6,.225-24.9.346-28.338.173a17.144,17.144,0,0,1-5.386-1.453,5.011,5.011,0,0,1-1.85-1.177,13.941,13.941,0,0,0-8.772-3.961c-2.974-.381-5.928-.536-8.867-.709a23.569,23.569,0,0,1-8.75-2.336,21.855,21.855,0,0,0-5.575-2.024c-.911-.138-4.717-7.058-6.539-9.687a31.827,31.827,0,0,0-10.032-8.892C164.33-1,158.262.235,156.526,2.335a41.211,41.211,0,0,0-3.572,5.335l-.007.028-.015.017a27.574,27.574,0,0,0-1.9,6.591,36.818,36.818,0,0,0-5.371-5.622c-2.577-2.37-5.393-4.5-8.674-5.225C131.748,2.3,128.578,6.4,127.878,7.7a33.286,33.286,0,0,0-3.952,9.2,28.442,28.442,0,0,0-.236,7.785c.019.276.036.539.033.8v.039a1.419,1.419,0,0,1-.48.922c-.277.2-.664.468-1.063.73-9.4,5.76-55.576,35.508-77.228,76.5,0,0-4.3,7.893,3.367.228,7.359-7.359,7.662-7.659,22.209-17.361.279-.15,1.2-.62.642.013h.006c-6.923,7.226-40.951,44.215-45.969,78.128,0,0-.979,8.207,2.306,1.636,3.18-6.359,11.489-26.055,22.942-36.249.229-.138.74-.4.456.208-3.636,6.422-20.471,38.368-23.4,84.223,0,0-.309,11.056,5.486-7.473A290.1,290.1,0,0,1,43.534,178.1l.005.006s.355-.631.385-.059l.006-.006c-.082,6.094-1.154,47.438-15.316,90h-.108c-3.4,8.784-13.258,28.936-14.528,32.089a124.808,124.808,0,0,0-3.938,16.278,29.192,29.192,0,0,0,.451,10.94l.009.035q.216.811.5,1.636a78.511,78.511,0,0,1,4.728,12.625A110.607,110.607,0,0,1,18.6,354.357a94.308,94.308,0,0,1,.655,10.887,42.7,42.7,0,0,1-1.491,13.614c-.02.067-.059.191-.108.347-.9,2.841-6.372,19.715-8.492,24.339-1.277,2.8-6,15.666-7.077,18.192a18.6,18.6,0,0,0-1.2,3.877H.861s-6.8,19.45,17.828,22.351c.717.084,1.468.15,2.239.206a37.053,37.053,0,0,0,4.161-.148,30.534,30.534,0,0,0,6.794-1.373c6.57-2.19,20.687-6.026,34.982-.823,0,0,14.3,4.108,21.941-1.447,0,0,3.3-2.111,5.693.64.093.113.188.233.287.365a4.628,4.628,0,0,1,.941,3.61c-.018.119.041.242.2.207,1.389-.6,1.8-2.124,1.061-3.9-.262-.623-.971-1.211-.785-1.851.162-.366.983-.035,1.471.208a5.267,5.267,0,0,1,3.157,4.445.236.236,0,0,0,.171.173.614.614,0,0,0,.725-.415c.662-1.332-.012-2.906-1.039-4.169-1.2-1.445-1.081-2.364-.545-3.288a.607.607,0,0,1,.847-.145l0,0a9.864,9.864,0,0,1,3.84,4.307h0l.013.029.045.089c.088.161.264.393.43.111a2.68,2.68,0,0,0-.186-1.863,11.562,11.562,0,0,0-5.859-5.864,12.8,12.8,0,0,1-2.49-1.354c-.342-.326.1-.475.1-.475a12.647,12.647,0,0,1,5.508.927c2.071.892,3.328,2.44,4.76,4.177.089.089.265.2.24-.08a8.483,8.483,0,0,0-5.741-6.275,23.051,23.051,0,0,0-5.961-1.107c-.632-.136-.731-.269-.839-.4-.064-.076-.024-.189.02-.272a.72.72,0,0,1,.174-.151,9.769,9.769,0,0,1,11.294,2.516c.169.177.4.079.326-.225a4.645,4.645,0,0,0-.739-1.207h0a9.968,9.968,0,0,0-8.123-3.78,20.057,20.057,0,0,0-5.283.71c-2.823.761-12.788-3.3-14.786-4.291-4.284-2.129-9.99-4.281-12.52-5.753-3.5-2.883-2.013-5.492-.431-8.652.553-1.046,1.164-2.051,1.808-3.032.05-.07.083-.114.083-.114h-.009a66.634,66.634,0,0,1,6.379-7.972c8.1-8.932,23.332-15.88,27.044-17.659.546-.191,1.428-.4.862.523-.455.741-.863,1.5-1.244,2.152-1.313,2.2-2.518,4.009-3.849,6.189-2.093,3.373-4.225,6.722-6.034,10.369a12.018,12.018,0,0,0-1.054,2.917c-.073.346.089,1.53.5,1.767a1.357,1.357,0,0,0,1.672-.168,7.052,7.052,0,0,0,.692-1.177c2.187-4.861,22.074-26.3,25.969-28.838,1.342-.882,4.993-2.731,5.307-2.9,1.458-.845,2.972-1.471,4.581-2.282.222-.087,1.1-.384,1.075.436h.026a7.329,7.329,0,0,1-.485,1.22c-1.993,3.72-7.688,14.359-8.478,16-.559,1.125-1.12,2.232-1.625,3.374a1.256,1.256,0,0,0,.265,1.491c.287.154,1.09.379,2.193-1.014v.018c5.135-5.753,22.734-25.7,24.668-26.963,2.651-1.73,5.975-2.491,9.327-3.131.913-.177,1.809-.368,2.7-.56h.009s1.6-.444,1.066.77a1.7,1.7,0,0,1-.232.4c-1.958,2.336-4.008,4.619-5.928,6.989q-3,3.684-5.813,7.508a9.7,9.7,0,0,0-1.771,3.287,1.428,1.428,0,0,0,.517,1.366,1.986,1.986,0,0,0,1.629.006,5.971,5.971,0,0,0,1.441-1.164c.819-.778,23.891-20.691,26.446-21.936a3.075,3.075,0,0,1,1.54-.4c5.966.571,11.2,3.477,15.706,8.1a41,41,0,0,1,8.208,12.542,30.686,30.686,0,0,1,2.364,9.03c.583,5.674-.377,10.916-1.092,16.192a42.083,42.083,0,0,1-1.638,8.563s-8.221,16.619-4.584,25.713c4.381,10.951,21.9,8.761,21.9,8.761s7.666-2.19,13.141-4.381a34.435,34.435,0,0,1,10.353-2.2c.936-.055,1.9-.057,2.868-.028l-.01.01s7.847,1.107,13.743,4.4l.01-.077.037.018-.047.059s15.222,7.318,38.773.508a.536.536,0,0,1,.543.049,3.188,3.188,0,0,1,.809,1.6,7.619,7.619,0,0,1,.036,2.046.135.135,0,0,0,.139.132.142.142,0,0,0,.061-.016,2.634,2.634,0,0,0,1.432-3.339,1.6,1.6,0,0,1,.006-1.2,1.9,1.9,0,0,1,1.64-.67c.939.052,1,.778,1.274,1.315a5.278,5.278,0,0,1,.363,2.965.325.325,0,0,1-.008.087c0,.152.057.415.39.2l.049-.038a3.571,3.571,0,0,0,1-4.806c-.725-1.366.234-1.593.806-1.868.646-.31,1.132.086,1.616.484a15.123,15.123,0,0,1,2.675,2.889c.374.519.777,1.41,1.384,1.384.454-.156.433-.588.3-.951a9.067,9.067,0,0,0-2.984-4.844c-1.421-1.038-1.808-1.988-1.687-3.158a.275.275,0,0,1,.325-.17c.038.009.078.015.115.025,2.229.56,3.592,2.407,5.324,3.951l.029.026c.039.027.1.042.126-.069v-.022a3.049,3.049,0,0,0-.852-2.071,12.553,12.553,0,0,0-7.3-4.913,5.2,5.2,0,0,0-1.415-.156,18.133,18.133,0,0,0-3.784.671c-.2.046-.093-.081-.079-.1a7.242,7.242,0,0,1,7.021-1.265c2.409.589,4.114,2.31,5.877,4.013l.026.025c.045.034.13.07.138-.118v-.024a2.543,2.543,0,0,0-.646-1.319,11.462,11.462,0,0,0-8.878-4.792,14.939,14.939,0,0,0-5.366.952c-3.562,1.4-7.107,2.734-11.808,1.481-4.518-1.205-10.753-4.383-13.855-6.184a15.743,15.743,0,0,1-2.553-1.971l-.659-.634-.017-.017-.051-.05c-4.046-4.014-9.812-16.128-11.621-21.055a19.547,19.547,0,0,1-1.006-5.172c-.383-3.979-1.16-8.114-.036-11.677a76.958,76.958,0,0,1,3.849-9.792,86.231,86.231,0,0,1,4.542-7.4c.591-.951,1.07-2.006,1.7-2.94.347-.511.7-1.016,1.055-1.522,14.806-25.46,6.318-40.7,3.084-45.057-.358-.436-.7-.878-1.079-1.306-.846-.968-1.5-1.909-2.276-2.9a37.5,37.5,0,0,0-6.826-6.221c-2.71-2.111-5.387-4.239-8.065-6.366-.681-.53-1.313-1.18-2.019-1.65-11.958-12-16.96-21.247-18.943-25.967-.375-.982-.74-1.993-1.092-3.025-.082-.291-.117-.449-.117-.449l-.015.062c-5.26-15.641-7.261-36.427,11.882-49.378,4.4-2.975,58.632-27.285,64.482-31.2.451-.307.907-.675.981-.738a5.758,5.758,0,0,1,2.277-.85,20.55,20.55,0,0,1,4.951.33,30.443,30.443,0,0,0,5.712.432c5.447-.017,6.415-5.76,6.611-6.487.128-.519.483-.813,1.1-.45a23.644,23.644,0,0,0,6.759,3.114c4.479.969,11.833-4.152,12.779-5.8A10.666,10.666,0,0,0,347.417,173.871Z"></path><g><path d="M286.1,409.376a9.531,9.531,0,1,1,9.53-9.532h0A9.54,9.54,0,0,1,286.1,409.376Zm0-18.182a8.651,8.651,0,1,0,8.652,8.651A8.652,8.652,0,0,0,286.1,391.194Z"></path><path d="M288.086,396.254a2.981,2.981,0,0,0-1.754-.515,3.151,3.151,0,0,0-1.483.326,2.93,2.93,0,0,0-1.015.872,3.811,3.811,0,0,0-.589,1.253,5.64,5.64,0,0,0-.189,1.462,6.3,6.3,0,0,0,.189,1.565,3.751,3.751,0,0,0,.589,1.286,2.919,2.919,0,0,0,1.023.873,3.179,3.179,0,0,0,1.49.326,2.852,2.852,0,0,0,1.129-.21,2.553,2.553,0,0,0,.854-.582,2.714,2.714,0,0,0,.563-.888,3.613,3.613,0,0,0,.243-1.11h1.286a4.386,4.386,0,0,1-1.259,2.844,4.077,4.077,0,0,1-2.925,1.016,4.649,4.649,0,0,1-1.963-.387,3.859,3.859,0,0,1-1.395-1.062,4.569,4.569,0,0,1-.833-1.6,6.856,6.856,0,0,1-.278-1.978,6.481,6.481,0,0,1,.3-1.984,4.789,4.789,0,0,1,.874-1.618,4.069,4.069,0,0,1,1.435-1.089,4.614,4.614,0,0,1,1.971-.4,4.929,4.929,0,0,1,1.434.2,3.85,3.85,0,0,1,1.206.6,3.329,3.329,0,0,1,.88.981,3.58,3.58,0,0,1,.46,1.361h-1.286A2.383,2.383,0,0,0,288.086,396.254Z"></path></g><path d="M83.43,445.374q-2.85.244-5.2.377A18.306,18.306,0,0,0,83.43,445.374Z"></path><path d="M86.42,445.1l-.437-.284c-.851.2-1.7.391-2.553.558C84.38,445.293,85.38,445.2,86.42,445.1Z"></path><path class="cls-1" d="M217.9,171.453a3.836,3.836,0,0,0-2.439,1.707l-1.01,1.269-4.6-2.111a5.705,5.705,0,0,0,1.825-.972,11.75,11.75,0,0,1,6.918-3.656c1.461-.157,1.484-.619,2.086-1.122,1.875-1.5,4.963-1.461,5.354-1.442a1.273,1.273,0,0,0,.3.039c1.426.072,2.746-1.39,3.19-1.969a5.229,5.229,0,0,1,4.017-1.464c1.566.034,5.889-2.457,7.262-3.152.308-.169.64-.338.921.024a.632.632,0,0,1-.132.781c-1.58,1.611-5.244,4.737-8.224,4.84a3.565,3.565,0,0,0-2.394,1.291,6.189,6.189,0,0,1-3.868,2.607,15.892,15.892,0,0,1-3.8.455A8.787,8.787,0,0,1,217.9,171.453Z"></path><path class="cls-2" d="M217.5,162.653a103.651,103.651,0,0,0-11.3,6.421c.016-.323-4.879-3.352-4.879-3.352,1.922-1.083,5.123-2.82,7.111-3.831,8.382-4.322,57.4-31.064,64.219-23.235.863,2.523-6.439,11.464-9.533,14.248-6.866,6.253-19.511,17.8-22.985,19.911a14.243,14.243,0,0,1-5.818,1.975c-3.847.383-8.178.765-12.081.891-.092,0,6.5-3.167,9.163-4.723a190.365,190.365,0,0,0,17-10.95,48.558,48.558,0,0,0,11.911-12.065c.474-.717,1.408-2.291.895-3.082-2-3.391-23.992,8.88-27.1,10.089C228.525,157.1,222.971,160.221,217.5,162.653Z"></path><path class="cls-3" d="M275.288,126.938c.528.055,1.23-.94,1.411-2.033.108-.657.15-1.328.283-1.979.4-1.934,1.21-3.807,3.176-4.312a5.194,5.194,0,0,1,5.216,1.618,13.15,13.15,0,0,1,3.444,7.03c.44,2.879-.607,5.563-4.012,4.938-.389,0-.893-.013-1.4,0a1.3,1.3,0,0,0-1.353,1c-.177.641.208,1.064.65,1.447a5.289,5.289,0,0,0,5.952.292c2.327-1.789,4.479-4.443,3.766-7.431-1.062-4.446-2.86-8.426-6.522-11.493a8.906,8.906,0,0,0-4.463-1.121c-2.678.443-4.2,1.713-5.9,4.047a8.633,8.633,0,0,0-1.8,5.741C273.8,125.655,274.693,126.876,275.288,126.938Z"></path><path class="cls-3" d="M318.28,184a10.5,10.5,0,0,0,1.38-7,17.83,17.83,0,0,0-2.194-7.33l-.023-.047a3.8,3.8,0,0,0-2.321-1.877c-2.426-.916-5.866-.778-7-.238a6.674,6.674,0,0,0-3.989,5.577c-.036.405.033.507.055.529s.137.1.579.047c1.1-.119,1.864-.382,2.256-1.325a3.226,3.226,0,0,1,2.864-2.016,4.674,4.674,0,0,1,4.481,3.65,20.489,20.489,0,0,1,.261,5.61c-.16,1.333-.5,2.1-1.109,2.481a3.111,3.111,0,0,1-2.7-.073,1.339,1.339,0,0,1-.19-.075,1.062,1.062,0,0,0-.424-.117.372.372,0,0,0-.147.027.746.746,0,0,0-.322.45c-.2.581-.388,1.168-.575,1.754l-.176.552c-.075.233-.1.534.4.792C311.628,186.557,316.981,186.317,318.28,184Z"></path><path class="cls-1" d="M73.622,332.541c3.627.809,5.9-.209,8.088-3.574a29.818,29.818,0,0,0,2.4-4.279c.574-1.252,8.844-19.7,10.358-23.167,1.878-4.226,2.634-8.714,3.469-13.175a13.068,13.068,0,0,0-.026-3.783,7.715,7.715,0,0,0-6.209-6.809c-5.009-.835-8.9,1.513-12.105,5.635a28.615,28.615,0,0,0-4.044,7.175,130.36,130.36,0,0,0-5.687,16.044c-1.409,4.983-2.3,10.019-3.366,15.054-.547,2.556-.469,5.165,1.2,7.174A10.6,10.6,0,0,0,73.622,332.541Zm35.925-63.057c4.8,3.913,6.7,9.053,5.948,15.523-.548,4.435-2.113,8.531-3.626,12.653-.548,1.487-14.584,36.759-16.958,41.168-3.287,6.157-8.088,9.471-14.818,9.392a44.787,44.787,0,0,1-17.271-3.391,16.09,16.09,0,0,1-8.4-7.905c-3.365-6.914-3.261-14.114-1.565-21.628a269.971,269.971,0,0,1,9.34-30.785,88.292,88.292,0,0,1,11.27-21.393C74.276,262,77.25,258.266,85,259.57c5.818,1.1,11.558,2.479,16.254,5.192,3.208,1.568,5.921,2.791,8.3,4.722Z"></path><path class="cls-2" d="M80.093,348.22c6.73.079,11.531-3.235,14.818-9.392,2.374-4.409,16.41-39.681,16.958-41.168,1.513-4.122,3.078-8.218,3.626-12.653.757-6.47-1.148-11.61-5.948-15.523-2.374-1.931-5.087-3.157-8.3-4.722-4.7-2.713-10.436-4.1-16.254-5.192-7.748-1.3-10.722,2.426-11.531,3.548a88.292,88.292,0,0,0-11.27,21.393,269.971,269.971,0,0,0-9.34,30.785c-1.7,7.514-1.8,14.714,1.565,21.628a16.09,16.09,0,0,0,8.4,7.905A44.79,44.79,0,0,0,80.093,348.22Zm46.569-72.71c1.878,5.662.679,11.48-.81,17.141A219.934,219.934,0,0,1,111.764,332.1a89.315,89.315,0,0,1-10.356,18,26.559,26.559,0,0,1-10.515,8.348,33.6,33.6,0,0,1-16.879,3.209c-15.732-.522-23.5-8.061-28.62-13.462a16.7,16.7,0,0,1-3.574-6.026c-2.5-6.966-2.609-14.349-2.009-21.837,2.844-26.323,17.4-60.135,19.045-62.718,1.252-1.956,8.792-15.183,27.785-9.965a63.885,63.885,0,0,1,23.09,8.087c3.261,1.957,6.651,3.679,9.261,6.574a39.844,39.844,0,0,1,5.061,6.236A35.775,35.775,0,0,1,126.662,275.51Z"></path><path class="cls-3" d="M97.938,288.346c-.836,4.461-1.592,8.949-3.469,13.175-1.514,3.47-9.784,21.915-10.358,23.167a30.011,30.011,0,0,1-2.4,4.279c-2.191,3.365-4.461,4.383-8.088,3.574a10.594,10.594,0,0,1-5.922-3.7c-1.669-2.009-1.748-4.618-1.2-7.174,1.07-5.035,1.957-10.071,3.366-15.054a130.031,130.031,0,0,1,5.687-16.044,28.553,28.553,0,0,1,4.044-7.175c3.209-4.122,7.1-6.47,12.105-5.635a7.717,7.717,0,0,1,6.209,6.809A13.139,13.139,0,0,1,97.938,288.346Z"></path><path class="cls-3" d="M178.035,284.368c3.2-1.137,7.177.924,9.83,3.079a12.945,12.945,0,0,1,4.974,8.574c.52,4.051.567,8.077-1.446,11.678a10.724,10.724,0,0,1-8.716,5.8c-6.467-.143-9.5-2.227-11.37-6.94-.354-.877-2.7-7.13-1.823-11.18C170.431,288.963,172.847,285.53,178.035,284.368Z"></path><path class="cls-2" d="M156.764,287.945c.308,2.605.853,18.83,3.435,25.059.734,3.032,4.216,13.5,10.8,12.554a8.692,8.692,0,0,1,1.564,0,50.03,50.03,0,0,0,10.3-1.114,90.583,90.583,0,0,0,11.18-3.671,30.872,30.872,0,0,0,9.687-5.329c6.609-5.519,8.551-11.393,5.685-19.494a54.459,54.459,0,0,0-4.287-9.142c-1.9-3.222-3.814-6.443-6.8-9.025a15.23,15.23,0,0,0-10.019-3.955,34.585,34.585,0,0,0-4.407.355c-4.263.569-8.337,1.682-12.5,2.558a31.443,31.443,0,0,0-8.314,3.411C160.151,281.692,156.362,284.605,156.764,287.945Zm62.555,7.366c2.322,7.058.876,13.335-2.819,19.3-3.127,5.021-7.58,8.6-12.506,11.819-4.05,2.653-8.338,4.832-12.506,7.2a42.408,42.408,0,0,1-17.528,5.518,26.543,26.543,0,0,1-14.164-2.913c-3.434-1.705-5.4-4.69-6.608-8.172-.853-2.416-17.149-47.632,1.989-57.746,2.132-1.871,5.022-2.581,7.533-3.908,5.234-2.724,11.037-3.789,16.627-5.5a33.789,33.789,0,0,1,14.851-.5c4.334.781,7.745,4.879,10.754,8.6a72.847,72.847,0,0,1,9.071,14.14A98.713,98.713,0,0,1,219.319,295.311Z"></path><path class="cls-1" d="M171.307,306.562c1.872,4.713,4.9,6.8,11.37,6.94a10.724,10.724,0,0,0,8.716-5.8c2.013-3.6,1.966-7.627,1.446-11.678a12.943,12.943,0,0,0-4.974-8.574c-2.653-2.155-6.632-4.216-9.83-3.079-5.187,1.161-7.6,4.6-8.551,11.014C168.608,299.43,170.953,305.685,171.307,306.562Zm-.307,19c-6.585.947-10.067-9.522-10.8-12.554-2.582-6.229-3.127-22.454-3.435-25.059-.4-3.34,3.387-6.253,6.325-7.793a31.45,31.45,0,0,1,8.313-3.411c4.169-.876,8.243-1.989,12.506-2.558a34.584,34.584,0,0,1,4.406-.355,15.226,15.226,0,0,1,10.019,3.955c2.984,2.582,4.9,5.8,6.8,9.025a54.3,54.3,0,0,1,4.287,9.142c2.866,8.1.924,13.975-5.685,19.494a30.856,30.856,0,0,1-9.686,5.329,90.583,90.583,0,0,1-11.18,3.671,50.03,50.03,0,0,1-10.3,1.114,8.666,8.666,0,0,0-1.57,0Z"></path><path class="cls-3" d="M42.8,393.949a2.992,2.992,0,0,1-2.3-3.514,2.471,2.471,0,0,1,.4-.963,2.921,2.921,0,0,1,3.081-1.195,2.622,2.622,0,0,1,2.03,3.062A2.984,2.984,0,0,1,42.8,393.949Z"></path><path class="cls-3" d="M41.957,402.958a3.223,3.223,0,1,1-2.557-3.8A3.309,3.309,0,0,1,41.957,402.958Z"></path><path class="cls-4" d="M50.58,379.457a6.91,6.91,0,0,0-6.476-.444,20.271,20.271,0,0,0-7.439,7.032c-.442.673-.888,1.394-1.31,2.117a73.126,73.126,0,0,0-3.375,6.758c-1.23,2.814-3.1,5.57-3.4,8.682-.8,2.02-1.678,9.86,3.342,11.409A10.207,10.207,0,0,0,42.9,411.724c1.541-1.786,4.8-8.911,5.685-10.781a49.415,49.415,0,0,0,2.895-8.324,36.217,36.217,0,0,0,.879-4.463C52.409,387.614,53.38,381.137,50.58,379.457Zm-8.622,23.5a3.223,3.223,0,1,1-2.557-3.8,3.308,3.308,0,0,1,2.556,3.8Zm.84-9.009a2.992,2.992,0,0,1-2.3-3.514,2.471,2.471,0,0,1,.4-.963,2.921,2.921,0,0,1,3.081-1.195,2.622,2.622,0,0,1,2.03,3.062,2.984,2.984,0,0,1-3.212,2.611Z"></path><path class="cls-1" d="M31.923,415.011A10.207,10.207,0,0,0,42.9,411.724c1.541-1.786,4.8-8.911,5.685-10.781a49.415,49.415,0,0,0,2.895-8.324,36.217,36.217,0,0,0,.879-4.463c.05-.542,1.017-7.019-1.78-8.7a6.91,6.91,0,0,0-6.476-.444,20.271,20.271,0,0,0-7.439,7.032c-.442.673-.888,1.394-1.31,2.117a73.261,73.261,0,0,0-3.374,6.759c-1.23,2.814-3.1,5.57-3.4,8.682C27.78,405.622,26.9,413.462,31.923,415.011Zm30.429-35.819c.037,4.308-3.84,17.7-5.824,22.8a46.478,46.478,0,0,1-2.567,5.761c-1.768,3.241-3.351,6.546-5.5,9.752a25.009,25.009,0,0,1-5.983,6.189,15.655,15.655,0,0,1-10.674,3.1c-4.113-.278-6.865-1.93-9.75-4.736-3.867-3.775-3.036-19.254-1.264-23.85,1.187-3.127,4.7-13.059,7.191-16.115,2.034-2.5,4.064-4.96,5.92-7.6,9.979-14.05,23.729-5.67,24.779-4.624C61.562,372.675,62.316,375.645,62.352,379.192Z"></path><path class="cls-1" d="M222.28,203.036a2.225,2.225,0,0,1-2.01-1.588c-.175-.775.006-2.709,3.316-3.392a35.721,35.721,0,0,1,8.751-.361c1.634.061,1.21-.852,4.772-1.42,2.047-.333,2,.3,3.982.133,2.082-.188.942-1.065,3.468-1.454a12.261,12.261,0,0,1,3.9.529,5.219,5.219,0,0,1,4.009-.792c2.235-.6,7.84-1.742,8.416-1.814.216-.03.576-.072.576-.072.144.273-.048.3-.276.476-.279.215-6.434,2.569-8.979,3.48-.831.289-1.539,1.111-3.682.866H248.5a8.108,8.108,0,0,0-5.652,1.135,4.343,4.343,0,0,1-2.157.514c-1.355.01-2.813-.18-4,.437a9.7,9.7,0,0,1-5.046,1.564,9.357,9.357,0,0,0-5.015,1.186A6.271,6.271,0,0,1,222.28,203.036Z"></path><path d="M222.28,203.036a6.268,6.268,0,0,0,4.348-.575,9.357,9.357,0,0,1,5.015-1.186,9.7,9.7,0,0,0,5.046-1.564c1.19-.617,2.648-.427,4-.437a4.343,4.343,0,0,0,2.157-.514,8.1,8.1,0,0,1,5.657-1.13h.024c2.143.245,2.851-.577,3.682-.866,2.545-.911,8.7-3.265,8.979-3.48.228-.171.42-.2.276-.476,0,0-.36.042-.576.072-.575.072-6.181,1.211-8.416,1.814a5.219,5.219,0,0,0-4.009.792,12.261,12.261,0,0,0-3.9-.529c-2.527.389-1.386,1.266-3.468,1.454-1.987.172-1.935-.466-3.982-.133-3.562.568-3.138,1.481-4.772,1.42a35.721,35.721,0,0,0-8.751.361c-3.31.683-3.491,2.617-3.316,3.392A2.227,2.227,0,0,0,222.28,203.036Zm-5.029,6.057c-1.872-.057-4.731.044-6.6-2.744a7.588,7.588,0,0,1,2.3-10.48,7.683,7.683,0,0,1,.745-.42,30.414,30.414,0,0,1,9.065-2.474c7.169-1.084,55.122-6.946,57.122-6.712.46-.106,2.169,1.1-1.407,2.714-5.91,3.133-11.429,7.32-17.7,9.664-7.547,2.812-15.627,4.3-23.269,6.815a86.487,86.487,0,0,1-11.232,3.13,42.38,42.38,0,0,1-9.022.507Z"></path><path class="cls-2" d="M210.655,206.349c1.866,2.788,4.727,2.687,6.6,2.744a42.464,42.464,0,0,0,9.024-.506,86.487,86.487,0,0,0,11.232-3.13c7.642-2.519,15.722-4,23.269-6.815,6.273-2.344,11.792-6.531,17.7-9.664,3.575-1.612,1.867-2.82,1.407-2.714-2-.234-49.954,5.628-57.123,6.712a30.4,30.4,0,0,0-9.064,2.474,7.588,7.588,0,0,0-3.465,10.155A7.751,7.751,0,0,0,210.655,206.349Zm4.072-19.466c11-1.676,45.024-4.625,50.975-5.023,4.252-.274,8.479-.835,12.693-1.515,2.721-.446,14.265-1.864,17.242-1.053a2.48,2.48,0,0,1,.756,3.27c-2.5,3.338-6.435,5.824-9.978,8.2a172.088,172.088,0,0,1-19.8,11.492c-5.169,2.5-48.918,17.784-55.972,17.142-4.2-.008-11.458-1.118-14.161-6.778-2.415-4.212-3.466-9.144-1.568-14.1a14.707,14.707,0,0,1,8.1-8.493,45.067,45.067,0,0,1,11.712-3.142Z"></path><path class="cls-3" d="M231.481,350.43a2.21,2.21,0,0,1,1.871,1.847,3.3,3.3,0,0,1-3.037,3.544c-.1.007-.2.011-.3.009a2.4,2.4,0,0,1-1.919-2.7,2.758,2.758,0,0,1,2.743-2.773A2.8,2.8,0,0,1,231.481,350.43Z"></path><path class="cls-3" d="M231.365,366.774a3.089,3.089,0,0,1-2.891,2.25,2.658,2.658,0,0,1-2.345-2.748,2.731,2.731,0,0,1,2.791-2.668c.081,0,.161.007.242.016a2.4,2.4,0,0,1,2.306,2.49c0,.037,0,.073-.007.11A2.181,2.181,0,0,1,231.365,366.774Z"></path><path class="cls-4" d="M233.8,338.185c-4.428-.971-7.058,3.008-8.123,5.566-.972,2.274-2.629,10.872-3.08,13.146a73.824,73.824,0,0,0-1.161,9.072c-.142,2.131-.213,4.216-.165,6.016,0,.616.071,8.1,2.463,9.545a4.138,4.138,0,0,0,5.093-.592,24.1,24.1,0,0,0,4.9-9.214c.4-1.3.783-2.676,1.114-4.1.545-2.251,1.019-4.572,1.421-6.7.615-3.41,1.73-6.845,1.563-10.421C238.185,348.086,237.9,339.085,233.8,338.185Zm-2.322,12.245a2.21,2.21,0,0,1,1.871,1.847,3.3,3.3,0,0,1-3.037,3.544c-.1.007-.2.011-.3.009a2.4,2.4,0,0,1-1.919-2.7,2.758,2.758,0,0,1,2.743-2.773A2.8,2.8,0,0,1,231.481,350.43Zm-3.008,18.593a2.656,2.656,0,0,1-2.345-2.748,2.729,2.729,0,0,1,2.79-2.668c.081,0,.161.007.242.016a2.4,2.4,0,0,1,2.306,2.49c0,.037,0,.073-.006.11a2.239,2.239,0,0,1-.094.545,3.088,3.088,0,0,1-2.892,2.256Z"></path><path class="cls-1" d="M223.737,381.53a4.138,4.138,0,0,0,5.093-.592,24.1,24.1,0,0,0,4.9-9.214c.4-1.3.783-2.676,1.114-4.1.545-2.251,1.019-4.572,1.421-6.7.615-3.41,1.73-6.845,1.563-10.421.355-2.416.072-11.417-4.027-12.317-4.429-.971-7.058,3.008-8.124,5.566-.971,2.274-2.629,10.872-3.079,13.146a73.824,73.824,0,0,0-1.161,9.072c-.142,2.131-.213,4.216-.166,6.016C221.274,372.6,221.345,380.085,223.737,381.53Zm18.9-50.048c3.671,3.458,5,20.251,4.145,25.51-.592,3.553-.118,11.866-3.15,17.906-1.35,2.7-4.832,8.906-6.016,12.056-6.372,16.746-20.3,7.6-21.318,6.632-2.7-2.558-3.718-5.613-4.192-9.45-.592-4.619.853-19.683,1.824-25.486.355-2.179.782-4.5,1.35-6.632,1.042-3.766,1.919-7.58,3.27-11.393A27.915,27.915,0,0,1,222.671,333a11.85,11.85,0,0,1,8.337-5.021c3.411-.379,8.906.947,11.63,3.505Z"></path><path class="cls-3" d="M139.854,101.805s6.963.379,9.545,3.837c3.008,3.98,3.648,12.056,2.961,15.988-1.493,8.48-21.175,19.47-21.175,19.47Z"></path><path class="cls-3" d="M129.38,77.077c4.715,1.777,4.927,6.94,4.927,6.94l.782,8.953L109.18,84.254l8.622-5.092S124.7,75.3,129.38,77.077Z"></path><path class="cls-3" d="M111.028,120.92c.071-1.161,1.776-5.732,6.49-7.935a13.412,13.412,0,0,1,6.349-1.208c2.817.095,8.361.426,8.361.426l2.937-11.89-14.543-5.756c-.971,5.709-4.335,12.6-7.532,14.828-.427.284-1.185.71-2.132,1.208-2.819,1.468-7.3,3.529-9.238,4.689-4.9,2.866-6.917,16.344-6.917,16.344l-1.231,5.826-.757-5.637s-.357-13.738,3.6-17.433a51.318,51.318,0,0,1,9.687-7.034c5.164-1.374,7.769-9.072,7.769-9.072l1.35-5.827-11.227-2.984S83.435,109.5,79.835,130.181c-1.137,6.537,1.445,14.377,9.806,15.253a92.309,92.309,0,0,0,17.432.379c6.135-.26,19.233-3.268,19.233-3.268l4.524-22.336s-5.139-2.984-10.042-2.416c-4.9.592-7.39,7.082-7.39,7.082s-.711,6.04-3.482,6.893a9.808,9.808,0,0,0-4.974,3.742s-3.1,2.842-3.15,2.345c-.024-.474,1.231-4.477,2.2-5.5S110.625,127.86,111.028,120.92Z"></path><path class="cls-1" d="M139.854,101.805,131.185,141.1s19.682-10.99,21.175-19.47c.687-3.932.047-12.008-2.961-15.988C146.817,102.184,139.854,101.805,139.854,101.805ZM109.18,84.254l25.913,8.716-.782-8.953s-.213-5.163-4.927-6.94C124.7,75.3,117.8,79.162,117.8,79.162ZM94.8,131.63l-1.231,5.826-.757-5.637s-.357-13.738,3.6-17.433a51.318,51.318,0,0,1,9.687-7.034c5.164-1.374,7.769-9.072,7.769-9.072l1.35-5.827-11.227-2.984s-20.559,20.038-24.159,40.716c-1.137,6.537,1.445,14.377,9.806,15.253a92.309,92.309,0,0,0,17.432.379c6.135-.26,19.233-3.268,19.233-3.268l4.524-22.336s-5.14-2.984-10.042-2.416c-4.9.592-7.39,7.082-7.39,7.082s-.711,6.04-3.482,6.893a9.808,9.808,0,0,0-4.974,3.742s-3.1,2.842-3.15,2.345c-.024-.474,1.231-4.477,2.2-5.5s6.632-4.5,7.035-11.44c.071-1.161,1.776-5.732,6.49-7.935a13.406,13.406,0,0,1,6.348-1.208c2.818.095,8.361.426,8.361.426l2.937-11.89L120.62,94.556c-.971,5.709-4.335,12.6-7.532,14.828-.427.284-1.185.71-2.132,1.208-2.819,1.468-7.3,3.529-9.238,4.689C96.817,118.148,94.8,131.63,94.8,131.63ZM163.16,104.3c2.464,5.4,1.872,24.349-10.327,32.781-12.2,8.456-16.651,16.059-46.66,17.6-30.034,1.563-33.941-7.556-33.941-7.556s-8.693-11.251,7.721-40.053C96.652,77.768,111.1,70.19,111.1,70.19s13.026-10.09,24.774-5.045c9.523,4.074,9,20.038,9,20.038s2.155,6.158,7.129,8.811c4.052,2.15,8.694,4.922,11.157,10.3Z"></path><path d="M179.921,57.779c0-2.108,2.226-3.766,5.045-3.766,3.2.213,4.618,1.942,4.689,4.406a5.011,5.011,0,0,1-4.523,4.737,5.191,5.191,0,0,1-5.214-5.167Q179.918,57.884,179.921,57.779Z"></path><path class="cls-3" d="M173.218,56.666A12.352,12.352,0,0,0,185.1,69.472c.17.006.34.009.509.008,5.235.047,10.9-5.8,10.73-11.3-.19-5.827-3.529-9.924-11.109-10.445C178.5,47.737,173.218,51.668,173.218,56.666Zm15.8,20.82c-2.392.829-7.864,1.918-17.243-2.511-5.684-2.676-9.71-17.906-5.755-23.5,8.337-11.843,22.028-12.269,28.47-9.617a11.287,11.287,0,0,1,4.643,3.98,23.964,23.964,0,0,1,3.363,6.276c2.842,8.077-1.255,15.87-1.279,15.965-.736,2.917-6,7.18-12.2,9.407Z"></path><path class="cls-1" d="M171.774,74.975c9.378,4.429,14.85,3.34,17.242,2.511,6.206-2.227,11.465-6.49,12.2-9.4.024-.095,4.121-7.888,1.28-15.965a23.968,23.968,0,0,0-3.364-6.276,11.274,11.274,0,0,0-4.643-3.98c-6.442-2.652-20.133-2.226-28.47,9.617C162.063,57.069,166.088,72.3,171.774,74.975Zm33.207-35.007a33.644,33.644,0,0,1,6.229,24.159,18.975,18.975,0,0,1-3.009,7.508A43.882,43.882,0,0,1,196.24,83.076a24.607,24.607,0,0,1-13.667,4.216c-.165,0-6.347-.213-9.19-1.185-14.235-4.737-17.361-23.567-17.574-24.822-.4-2.2.473-8.977.734-10.185.639-2.985,6.7-13.762,15.253-15.87a36.363,36.363,0,0,1,12.672-3.268,76.771,76.771,0,0,1,9.948,1.16A17.345,17.345,0,0,1,204.981,39.968Z"></path><path class="cls-1" d="M185.606,69.48a12.35,12.35,0,0,1-12.4-12.3q0-.255.009-.51c0-5,5.281-8.929,12.008-8.929,7.58.521,10.919,4.618,11.108,10.445C196.5,63.677,190.841,69.53,185.606,69.48Zm-5.685-11.7a5.192,5.192,0,0,0,5,5.374l.209,0a5.011,5.011,0,0,0,4.523-4.737c-.071-2.464-1.492-4.193-4.689-4.406-2.819,0-5.045,1.657-5.045,3.765Z"></path><path class="cls-5" d="M257.081,445.466l-.011.076.046-.058Z"></path><path class="cls-5" d="M257.081,445.466l-.011.076.046-.058Z"></path><path class="cls-5" d="M257.081,445.462l-.011.077.047-.059Z"></path><path class="cls-5" d="M257.081,445.462l-.011.077.047-.059Z"></path><path class="cls-5" d="M257.081,445.462l-.011.077.047-.059Z"></path><path class="cls-1" d="M156.067,198.024c-.777-.933-7.034-4.138-7.034-4.138s-24.05-12.128-46.168-16.136q-1.146-.245-2.321-.391c-.267-.041-.535-.088-.8-.127a1.663,1.663,0,0,0-.417-.007,51.388,51.388,0,0,0-12.392.6,25.692,25.692,0,0,0-11.48,4.3c-5.375,3.74-6.822,8.142-8.388,13.591-1.078,3.728-1.518,10.556.473,13.922,3.314,5.617,11.066,9.68,11.066,9.68,1.52,1.119,9.389,3.5,9.389,3.5s6.99,4.194,23.825,9.118c3.978,1.171,14.349,3.471,20.651,4.813,5.034,1.859,12.286,3.808,12.286,3.808-.134.407,19.861,4.5,24.924-12.438a52.7,52.7,0,0,0,2.339-12.98C172.457,206.983,156.147,197.73,156.067,198.024Z"></path><path class="cls-4" d="M180.985,216.414c-.024-4.128-1.7-10.7-4.233-14.064-9.23-12.252-58.216-33.889-84.9-35.072-24.686-1.085-30.513,15.833-32.729,21.231-.673,1.61-5.1,19.4,9.665,32.832,16.966,15.4,58.607,24.442,64.667,25.879a70.244,70.244,0,0,0,20.292,2.193c5.328-.3,10.3-1.616,14.221-4.982C181.626,232.684,181,218.765,180.985,216.414Zm-11.307,11.7c-5.063,16.938-25.058,12.845-24.924,12.438,0,0-7.252-1.949-12.286-3.808-6.3-1.342-16.673-3.642-20.651-4.813-16.835-4.924-23.825-9.118-23.825-9.118s-7.869-2.377-9.389-3.5c0,0-7.752-4.063-11.066-9.68-1.991-3.366-1.551-10.194-.473-13.922,1.566-5.449,3.013-9.851,8.388-13.591a25.692,25.692,0,0,1,11.48-4.3,51.388,51.388,0,0,1,12.392-.6,1.671,1.671,0,0,1,.418.007c.267.039.535.086.8.127.781.1,1.557.228,2.321.391,22.118,4.008,46.168,16.136,46.168,16.136s6.257,3.205,7.034,4.138c.08-.3,16.39,8.959,15.949,17.108a52.689,52.689,0,0,1-2.334,12.985Z"></path><path class="cls-4" d="M151.2,215.24c-.178-.024-.5-.094-.9-.192l-.181-.066c-1.012-.456-2.072-1.27-1.8-2.3.33-1.143,3.511-8.28,2.486-9.9a3.587,3.587,0,0,0-4.472-1.553c-2.179.962-3.635,6.309-3.923,7.046-1.192,2.836-1.192,2.836-5.5,1.206-2.409-.89-2.536-1.107-1.739-3.808.315-1.075,3.96-8.734.629-10.13-2.4-1-4.83-.273-5.5,1.97-.255.8-1.641,4.526-2.019,5.673-.858,2.614-.948,2.664-3.934,1.652-1.582-.535-3.183-1.2-4.821-1.623-1.467-.406-2.081-1.156-1.8-2.5a50.59,50.59,0,0,1,1.9-5.127,3.2,3.2,0,0,0-1.085-4.184,3.48,3.48,0,0,0-4.679.483c-.729.718-2.367,5.447-2.947,6.718-.477.95-2.053.819-3.251.419-.61-.188-4.736-1-5.878-1.873-1.359-1.043.415-5.308.788-6.14a4.052,4.052,0,0,0-1.814-5.061,3.6,3.6,0,0,0-4.827,1.616q-.035.069-.066.138c-.661,1.208-1.934,4.7-2.141,5.141-.749,1.642-1.228,2.161-2.629,2.032l-6.887-1.856c-2.5-.76-5.375.305-6.13,2.245-.82,2.033.5,4.123,3.23,5.2,1.017.391,3.145.977,4.806,1.424,1.057.326,2.111.656,3.167.955,1.213.332,1.746,1.02,1.609,2.152-.164,1.111-1.909,6.836-2.176,7.549-.831,2.275.278,3.085,2.8,3.9,2.494.8,3.446-1.308,3.867-3.738a36.215,36.215,0,0,1,1.926-5.466c.806-1.577,1.119-1.775,2.943-1.255,1.645.464,3.248.974,4.851,1.485,1.657.553,1.975.916,1.781,2.524-.252,1.881-1.049,3.345-1.528,5.172-.15.683-1.7,5.677,1.192,6.739,1.41.523,2.488.751,3.642.12,1.362-.711,2.85-8.308,3.68-9.707.908-1.538,1.657-1.4,3.562-.82,1.8.5,3.562,1.136,5.355,1.793,2.053.776,2.126.951,1.723,3.156a.031.031,0,0,1,.009.042l0,0c-.237.576-.378,1.146-.588,1.743a18.819,18.819,0,0,0-1.578,6.378s.223,2.684,5.207,2.836c1.466.047,2.4-7.147,3.522-8.878,1.089-1.638.98-1.722,2.969-1.234,5.246,1.35,5.467,1.718,4.448,6.523-.323,1.548-1.824,6.194-.148,7.24a4.434,4.434,0,0,0,3.531.553c1.9-.7,2.5-6.392,3.215-7.761.6-1.142,1-1.533,1.905-1.471,2.333.6,4.471,1.166,4.982,1.327,3.572,1.1,4.629-.3,5.476-3.507C158.274,217.071,154.944,215.819,151.2,215.24Z"></path></g></g></g></g></g></g></svg>