<?xml version="1.0" encoding="UTF-8"?><svg id="Calque_2" xmlns="http://www.w3.org/2000/svg" viewBox="0 0 252.9 101.64"><g id="CDPDJ"><g><g><circle cx="35.5" cy="3.38" r="3.38" style="fill:#953d89;"/><path d="M51.21,5.63c-11.65,5.72-21.34,13.61-28.98,21.85,.63,.87,1.27,1.73,1.92,2.57,.84,1.08,2.45,1.18,3.39,.19,7.09-7.41,15.87-14.38,26.21-19.46l3.02-1.48c-1.72-1.4-3.58-2.63-5.56-3.67Z" style="fill:#953d89;"/><path d="M28.88,15c.91-.77,1.84-1.53,2.79-2.27-4.2-2.91-8.27-5.28-11.96-7.06-1.98,1.05-3.84,2.29-5.57,3.69l3.06,1.48c2.49,1.21,5.14,2.68,7.86,4.41,1.19,.75,2.73,.66,3.81-.25Z" style="fill:#953d89;"/></g><g><circle cx="67.62" cy="35.5" r="3.38" style="fill:#27bcd5;"/><path d="M58.28,31.67c2.91-4.2,5.28-8.27,7.06-11.96-1.05-1.98-2.29-3.84-3.69-5.57l-1.48,3.06c-1.21,2.49-2.68,5.14-4.41,7.86-.75,1.19-.66,2.73,.25,3.81,.77,.91,1.53,1.84,2.27,2.79Z" style="fill:#27bcd5;"/><path d="M43.51,22.24c-.87,.63-1.73,1.27-2.57,1.92-1.08,.84-1.18,2.45-.19,3.39,7.41,7.09,14.38,15.87,19.46,26.21l1.48,3.02c1.4-1.72,2.63-3.58,3.67-5.56-5.72-11.65-13.61-21.34-21.85-28.98Z" style="fill:#27bcd5;"/></g><g><circle cx="3.38" cy="35.5" r="3.38" style="fill:#cf3575;"/><path d="M12.72,39.33c-2.91,4.2-5.28,8.27-7.06,11.96,1.05,1.98,2.29,3.84,3.69,5.57l1.48-3.06c1.21-2.49,2.68-5.14,4.41-7.86,.75-1.19,.66-2.73-.25-3.81-.77-.91-1.53-1.84-2.27-2.79Z" style="fill:#cf3575;"/><path d="M30.25,43.45c-7.41-7.09-14.38-15.87-19.46-26.21l-1.48-3.02c-1.4,1.72-2.63,3.58-3.67,5.56,5.72,11.65,13.61,21.34,21.85,28.98,.87-.63,1.73-1.27,2.57-1.92,1.08-.84,1.18-2.45,.19-3.39Z" style="fill:#cf3575;"/></g><g><circle cx="35.5" cy="67.62" r="3.38" style="fill:#2a73d0;"/><path d="M48.77,43.51c-.63-.87-1.27-1.73-1.92-2.57-.84-1.08-2.45-1.18-3.39-.19-7.09,7.41-15.87,14.38-26.21,19.46l-3.02,1.48c1.72,1.4,3.58,2.63,5.56,3.67,11.65-5.72,21.34-13.61,28.98-21.85Z" style="fill:#2a73d0;"/><path d="M53.79,60.16c-2.49-1.21-5.14-2.68-7.86-4.41-1.19-.75-2.73-.66-3.81,.25-.91,.77-1.84,1.53-2.79,2.27,4.2,2.91,8.27,5.28,11.96,7.06,1.98-1.05,3.84-2.29,5.57-3.69l-3.06-1.48Z" style="fill:#2a73d0;"/></g><g><path d="M90.1,73.7c-.6-.59-1.4-.91-2.3-.91-2.05,0-3.48,1.56-3.48,3.8s1.43,3.83,3.48,3.83c1.12,0,1.88-.52,2.3-.93v.71h1.16v-10.84h-1.16v4.34Zm0,4.45c-.4,.57-1.17,1.16-2.16,1.16-1.47,0-2.42-1.07-2.42-2.73s.95-2.7,2.42-2.7c.98,0,1.75,.58,2.16,1.13v3.13Z" style="fill:#001042;"/><path d="M96.76,72.78c-2.04,0-3.52,1.59-3.52,3.78,0,2.65,1.83,3.84,3.64,3.84,1.15,0,2.12-.31,2.95-.96l.04-.03v-1.21l-.17,.12c-.94,.7-1.76,.99-2.83,.99-1.31,0-2.32-.96-2.4-2.26h5.66v-.09c.03-.1,.05-.32,.05-.49,0-2.19-1.41-3.71-3.42-3.71Zm-2.25,3.24c.1-1.27,1.01-2.16,2.25-2.16s2.14,.84,2.2,2.16h-4.45Z" style="fill:#001042;"/><rect x="107.01" y="69.35" width="1.16" height="10.84" style="fill:#001042;"/><path d="M115.09,79.67v.52h1.13v-4.84c0-1.61-1.09-2.57-2.9-2.57-.96,0-1.84,.21-2.69,.66l-.06,.03v1.23l.16-.1c.58-.37,1.56-.76,2.59-.76,1.62,0,1.74,1.08,1.74,1.41v.73c-.34-.18-1.08-.49-2.05-.49-1.41,0-2.85,.82-2.85,2.38s1.12,2.54,2.85,2.54c1.01,0,1.71-.44,2.08-.74Zm-3.72-1.8c0-.82,.72-1.36,1.8-1.36,.87,0,1.58,.34,1.89,.57v1.56c-.39,.35-1.1,.75-1.89,.75-1.08,0-1.8-.61-1.8-1.51Z" style="fill:#001042;"/><path d="M130.27,76.58c0-2.2-1.47-3.8-3.49-3.8-1.1,0-1.83,.46-2.29,.91v-.68h-1.16v9.95h1.16v-3.48c.47,.46,1.21,.93,2.29,.93,2.02,0,3.49-1.61,3.49-3.83Zm-3.65,2.73c-.96,0-1.73-.6-2.13-1.16v-3.13c.4-.55,1.16-1.13,2.13-1.13,1.46,0,2.45,1.08,2.45,2.7s-.98,2.73-2.45,2.73Z" style="fill:#001042;"/><path d="M135.28,72.78c-2.04,0-3.52,1.59-3.52,3.78,0,2.65,1.83,3.84,3.64,3.84,1.15,0,2.12-.31,2.95-.96l.04-.03v-1.21l-.17,.12c-.94,.7-1.76,.99-2.83,.99-1.31,0-2.32-.96-2.4-2.26h5.66v-.09c.03-.1,.05-.32,.05-.49,0-2.19-1.41-3.71-3.42-3.71Zm-2.25,3.24c.1-1.27,1.01-2.16,2.25-2.16s2.14,.84,2.2,2.16h-4.45Z" style="fill:#001042;"/><path d="M143.98,72.78c-.87,0-1.69,.49-2.16,1.25v-1.01h-1.15v7.17h1.16v-4.65c.15-.38,.7-1.51,2.05-1.51,.19,0,.41,.03,.62,.07l.13,.03v-1.29l-.2-.02c-.12-.01-.28-.03-.46-.03Z" style="fill:#001042;"/><path d="M149.36,76.1l-1.14-.25c-.38-.08-1.02-.32-1.02-.94,0-.68,.55-1.07,1.51-1.07,.69,0,1.51,.21,2.2,.56l.15,.08v-1.18l-.06-.03c-.48-.21-1.25-.49-2.29-.49-1.6,0-2.67,.85-2.67,2.13,0,1.02,.65,1.73,1.84,1.99l1.2,.26c.52,.11,1.14,.37,1.14,1.03,0,1.01-1.06,1.16-1.69,1.16-.73,0-1.56-.22-2.33-.62l-.15-.08v1.17l.06,.03c.54,.27,1.45,.55,2.42,.55,1.74,0,2.86-.87,2.86-2.22,0-1.06-.72-1.81-2.03-2.1Z" style="fill:#001042;"/><path d="M160.3,76.58c0-2.2-1.57-3.8-3.74-3.8s-3.74,1.6-3.74,3.8,1.57,3.83,3.74,3.83,3.74-1.61,3.74-3.83Zm-3.74,2.73c-1.49,0-2.54-1.12-2.54-2.73s1.04-2.7,2.54-2.7,2.54,1.11,2.54,2.7-1.04,2.73-2.54,2.73Z" style="fill:#001042;"/><path d="M167.08,75.65v4.55h1.15v-4.78c0-1.52-1.13-2.63-2.68-2.63-1.04,0-1.74,.48-2.14,.87v-.63h-1.15v7.17h1.16v-5.3c.53-.66,1.18-.99,1.92-.99,1.01,0,1.74,.73,1.74,1.74Z" style="fill:#001042;"/><path d="M173.86,72.78c-1.04,0-1.74,.48-2.14,.87v-.63h-1.15v7.17h1.16v-5.3c.53-.66,1.18-.99,1.92-.99,1.01,0,1.74,.73,1.74,1.74v4.55h1.15v-4.78c0-1.52-1.13-2.63-2.68-2.63Z" style="fill:#001042;"/><path d="M185.06,79.42v-1.21l-.17,.12c-.94,.7-1.76,.99-2.83,.99-1.31,0-2.32-.96-2.4-2.26h5.66v-.09c.03-.1,.05-.32,.05-.49,0-2.19-1.41-3.71-3.42-3.71s-3.52,1.59-3.52,3.78c0,2.65,1.83,3.84,3.64,3.84,1.15,0,2.12-.31,2.95-.96l.04-.03Zm-3.11-5.55c1.29,0,2.14,.84,2.2,2.16h-4.45c.1-1.27,1.01-2.16,2.25-2.16Z" style="fill:#001042;"/><path d="M195.13,72.78c-2.04,0-3.52,1.59-3.52,3.78,0,2.65,1.83,3.84,3.64,3.84,1.15,0,2.12-.31,2.95-.96l.04-.03v-1.21l-.17,.12c-.94,.7-1.76,.99-2.83,.99-1.31,0-2.32-.96-2.4-2.26h5.66v-.09c.03-.1,.05-.32,.05-.49,0-2.19-1.41-3.71-3.42-3.71Zm-2.25,3.24c.1-1.27,1.01-2.16,2.25-2.16s2.14,.84,2.2,2.16h-4.45Z" style="fill:#001042;"/><path d="M200.79,78.51c0,1.19,.69,1.91,1.85,1.91,.45,0,.87-.11,1-.15l.07-.02v-1.06l-.14,.05c-.13,.05-.39,.13-.67,.13-.63,0-.95-.33-.95-.98v-4.31h1.76v-1.04h-1.76v-2.89l-1.1,.65v2.24h-1.35v1.04h1.29v4.44Z" style="fill:#001042;"/><path d="M90.1,91.98c-.6-.59-1.4-.91-2.3-.91-2.05,0-3.48,1.56-3.48,3.8s1.43,3.83,3.48,3.83c1.12,0,1.88-.52,2.3-.93v.71h1.16v-10.84h-1.16v4.34Zm0,4.45c-.4,.57-1.17,1.16-2.16,1.16-1.47,0-2.42-1.07-2.42-2.73s.95-2.7,2.42-2.7c.98,0,1.75,.58,2.16,1.13v3.13Z" style="fill:#001042;"/><path d="M96.76,91.06c-2.04,0-3.52,1.59-3.52,3.78,0,2.65,1.83,3.84,3.64,3.84,1.15,0,2.12-.31,2.95-.96l.04-.03v-1.21l-.17,.12c-.94,.7-1.76,.99-2.83,.99-1.31,0-2.32-.96-2.4-2.26h5.66v-.09c.03-.1,.05-.32,.05-.49,0-2.19-1.41-3.71-3.42-3.71Zm-2.25,3.24c.1-1.27,1.01-2.16,2.25-2.16s2.14,.84,2.2,2.16h-4.45Z" style="fill:#001042;"/><path d="M105,94.38l-1.14-.25c-.38-.08-1.02-.32-1.02-.94,0-.68,.55-1.07,1.51-1.07,.69,0,1.51,.21,2.2,.56l.15,.08v-1.18l-.06-.03c-.48-.21-1.25-.49-2.29-.49-1.6,0-2.67,.85-2.67,2.13,0,1.02,.65,1.73,1.84,1.99l1.2,.26c.52,.11,1.14,.37,1.14,1.03,0,1.01-1.06,1.16-1.69,1.16-.73,0-1.56-.22-2.33-.62l-.15-.08v1.17l.06,.03c.54,.27,1.45,.55,2.42,.55,1.74,0,2.86-.87,2.86-2.22,0-1.06-.72-1.81-2.03-2.1Z" style="fill:#001042;"/><path d="M118.79,91.98c-.6-.59-1.4-.91-2.3-.91-2.05,0-3.48,1.56-3.48,3.8s1.43,3.83,3.48,3.83c1.12,0,1.88-.52,2.3-.93v.71h1.16v-10.84h-1.16v4.34Zm0,4.45c-.4,.57-1.17,1.16-2.16,1.16-1.47,0-2.42-1.07-2.42-2.73s.95-2.7,2.42-2.7c.98,0,1.75,.58,2.16,1.13v3.13Z" style="fill:#001042;"/><path d="M125.67,91.06c-.87,0-1.69,.49-2.16,1.25v-1.01h-1.15v7.17h1.16v-4.65c.15-.38,.7-1.51,2.05-1.51,.19,0,.41,.03,.62,.07l.13,.03v-1.29l-.2-.02c-.12-.01-.28-.03-.46-.03Z" style="fill:#001042;"/><path d="M131.06,91.06c-2.17,0-3.74,1.6-3.74,3.8s1.57,3.83,3.74,3.83,3.74-1.61,3.74-3.83-1.57-3.8-3.74-3.8Zm0,6.53c-1.49,0-2.54-1.12-2.54-2.73s1.04-2.7,2.54-2.7,2.54,1.11,2.54,2.7-1.04,2.73-2.54,2.73Z" style="fill:#001042;"/><rect x="136.73" y="91.3" width="1.16" height="7.17" style="fill:#001042;"/><path d="M137.3,87.66c-.51,0-.9,.39-.9,.91s.38,.91,.9,.91,.9-.39,.9-.91-.38-.91-.9-.91Z" style="fill:#001042;"/><path d="M141.92,88.41l-1.1,.65v2.24h-1.35v1.04h1.29v4.44c0,1.19,.69,1.91,1.85,1.91,.45,0,.87-.11,1-.15l.07-.02v-1.06l-.14,.05c-.13,.05-.39,.13-.67,.13-.63,0-.95-.33-.95-.98v-4.31h1.76v-1.04h-1.76v-2.89Z" style="fill:#001042;"/><path d="M148.55,94.38l-1.14-.25c-.38-.08-1.02-.32-1.02-.94,0-.68,.55-1.07,1.51-1.07,.69,0,1.51,.21,2.2,.56l.15,.08v-1.18l-.06-.03c-.48-.21-1.25-.49-2.29-.49-1.6,0-2.67,.85-2.67,2.13,0,1.02,.65,1.73,1.84,1.99l1.2,.26c.52,.11,1.14,.37,1.14,1.03,0,1.01-1.06,1.16-1.69,1.16-.73,0-1.56-.22-2.33-.62l-.15-.08v1.17l.06,.03c.54,.27,1.45,.55,2.42,.55,1.74,0,2.86-.87,2.86-2.22,0-1.06-.72-1.81-2.03-2.1Z" style="fill:#001042;"/><path d="M162.34,91.98c-.6-.59-1.4-.91-2.3-.91-2.05,0-3.48,1.56-3.48,3.8s1.43,3.83,3.48,3.83c1.12,0,1.88-.52,2.3-.93v.71h1.16v-10.84h-1.16v4.34Zm0,4.45c-.4,.57-1.17,1.16-2.16,1.16-1.47,0-2.42-1.07-2.42-2.73s.95-2.7,2.42-2.7c.98,0,1.75,.58,2.16,1.13v3.13Z" style="fill:#001042;"/><path d="M169,91.06c-2.04,0-3.52,1.59-3.52,3.78,0,2.65,1.83,3.84,3.64,3.84,1.15,0,2.12-.31,2.95-.96l.04-.03v-1.21l-.17,.12c-.94,.7-1.76,.99-2.83,.99-1.31,0-2.32-.96-2.4-2.26h5.66v-.09c.03-.1,.05-.32,.05-.49,0-2.19-1.41-3.71-3.42-3.71Zm-2.25,3.24c.1-1.27,1.01-2.16,2.25-2.16s2.14,.84,2.2,2.16h-4.45Z" style="fill:#001042;"/><rect x="179.25" y="87.63" width="1.16" height="10.84" style="fill:#001042;"/><path d="M185.56,91.06c-.96,0-1.84,.21-2.69,.66l-.06,.03v1.23l.16-.1c.58-.37,1.56-.76,2.59-.76,1.62,0,1.74,1.08,1.74,1.41v.73c-.34-.18-1.08-.49-2.05-.49-1.41,0-2.85,.82-2.85,2.38s1.12,2.54,2.85,2.54c1.01,0,1.71-.44,2.08-.74v.52h1.13v-4.84c0-1.61-1.09-2.57-2.9-2.57Zm1.74,5.85c-.39,.35-1.1,.75-1.89,.75-1.08,0-1.8-.61-1.8-1.51,0-.82,.72-1.36,1.8-1.36,.87,0,1.58,.34,1.89,.57v1.56Z" style="fill:#001042;"/><path d="M195.67,99.57c0,.69-.3,1.03-.91,1.03-.27,0-.47-.05-.53-.07l-.13-.04v1.02l.07,.02c.09,.03,.37,.11,.84,.11,1.12,0,1.82-.79,1.82-2.07v-8.27h-1.16v8.27Z" style="fill:#001042;"/><path d="M196.25,87.66c-.51,0-.9,.39-.9,.91s.38,.91,.9,.91,.9-.39,.9-.91-.38-.91-.9-.91Z" style="fill:#001042;"/><path d="M202.3,91.06c-2.04,0-3.52,1.59-3.52,3.78,0,2.65,1.83,3.84,3.64,3.84,1.15,0,2.12-.31,2.95-.96l.04-.03v-1.21l-.17,.12c-.94,.7-1.76,.99-2.83,.99-1.31,0-2.32-.96-2.4-2.26h5.66v-.09c.03-.1,.05-.32,.05-.49,0-2.19-1.41-3.71-3.42-3.71Zm-2.25,3.24c.1-1.27,1.01-2.16,2.25-2.16s2.14,.84,2.2,2.16h-4.45Z" style="fill:#001042;"/><path d="M212.46,96.59c-.53,.66-1.18,.99-1.94,.99-1.03,0-1.74-.73-1.74-1.77v-4.52h-1.16v4.75c0,1.74,1.36,2.66,2.7,2.66,1.05,0,1.76-.48,2.16-.87v.65h1.15v-7.19h-1.16v5.3Z" style="fill:#001042;"/><path d="M219.29,91.06c-1.04,0-1.74,.48-2.14,.87v-.63h-1.15v7.17h1.16v-5.3c.53-.66,1.18-.99,1.92-.99,1.01,0,1.74,.73,1.74,1.74v4.55h1.15v-4.78c0-1.52-1.13-2.63-2.68-2.63Z" style="fill:#001042;"/><path d="M227.38,91.06c-2.04,0-3.52,1.59-3.52,3.78,0,2.65,1.83,3.84,3.64,3.84,1.15,0,2.12-.31,2.95-.96l.04-.03v-1.21l-.17,.12c-.94,.7-1.76,.99-2.83,.99-1.31,0-2.32-.96-2.4-2.26h5.66v-.09c.03-.1,.05-.32,.05-.49,0-2.19-1.41-3.71-3.42-3.71Zm-2.25,3.24c.1-1.27,1.01-2.16,2.25-2.16s2.14,.84,2.2,2.16h-4.45Z" style="fill:#001042;"/><path d="M235.62,94.38l-1.14-.25c-.38-.08-1.02-.32-1.02-.94,0-.68,.55-1.07,1.51-1.07,.69,0,1.51,.21,2.2,.56l.15,.08v-1.18l-.06-.03c-.48-.21-1.25-.49-2.29-.49-1.6,0-2.67,.85-2.67,2.13,0,1.02,.65,1.73,1.84,1.99l1.2,.26c.52,.11,1.14,.37,1.14,1.03,0,1.01-1.06,1.16-1.69,1.16-.73,0-1.56-.22-2.33-.62l-.15-.08v1.17l.06,.03c.54,.27,1.45,.55,2.42,.55,1.74,0,2.86-.87,2.86-2.22,0-1.06-.72-1.81-2.03-2.1Z" style="fill:#001042;"/><path d="M242.5,94.38l-1.14-.25c-.38-.08-1.02-.32-1.02-.94,0-.68,.55-1.07,1.51-1.07,.69,0,1.51,.21,2.2,.56l.15,.08v-1.18l-.06-.03c-.48-.21-1.25-.49-2.29-.49-1.6,0-2.67,.85-2.67,2.13,0,1.02,.65,1.73,1.84,1.99l1.2,.26c.52,.11,1.14,.37,1.14,1.03,0,1.01-1.06,1.16-1.69,1.16-.73,0-1.56-.22-2.33-.62l-.15-.08v1.17l.06,.03c.54,.27,1.45,.55,2.42,.55,1.74,0,2.86-.87,2.86-2.22,0-1.06-.72-1.81-2.03-2.1Z" style="fill:#001042;"/><path d="M249.48,91.06c-2.04,0-3.52,1.59-3.52,3.78,0,2.65,1.83,3.84,3.64,3.84,1.15,0,2.12-.31,2.95-.96l.04-.03v-1.21l-.17,.12c-.94,.7-1.76,.99-2.83,.99-1.31,0-2.32-.96-2.4-2.26h5.66v-.09c.03-.1,.05-.32,.05-.49,0-2.19-1.41-3.71-3.42-3.71Zm-2.25,3.24c.1-1.27,1.01-2.16,2.25-2.16s2.14,.84,2.2,2.16h-4.45Z" style="fill:#001042;"/></g><g><path d="M84.33,21.7c0,7.41,5.62,10.78,10.84,10.78,2.55,0,4.68-.53,6.9-1.7v-4.17c-2.31,1.41-4.32,2.04-6.5,2.04-4.19,0-7.01-2.79-7.01-6.94s2.82-6.95,7.01-6.95c2.18,0,4.19,.63,6.5,2.04v-4.14c-2.35-1.22-4.42-1.73-6.9-1.73-5.22,0-10.84,3.37-10.84,10.78Z" style="fill:#001042;"/><path d="M112.85,17.29c-4.51,0-7.78,3.18-7.78,7.57s3.27,7.63,7.78,7.63,7.81-3.21,7.81-7.63-3.28-7.57-7.81-7.57Zm0,11.78c-2.34,0-3.97-1.73-3.97-4.21s1.63-4.18,3.97-4.18,4,1.72,4,4.18-1.65,4.21-4,4.21Z" style="fill:#001042;"/><path d="M163.28,32.02v-9.78l.06-.08c.74-1.04,1.69-1.58,2.76-1.58,1.61,0,2.6,1.11,2.6,2.91v8.54h3.66v-9.6c0-3.53-2.6-5.14-5.01-5.14-2.26,0-3.69,1.1-4.48,2.02l-.25,.3-.22-.32c-.85-1.27-2.33-1.99-4.03-1.99-1.56,0-2.82,.53-3.72,1.57l-.52,.6v-1.68h-3.59v14.25h3.66v-9.69l.05-.08c.73-1.1,1.71-1.68,2.83-1.68,1.59,0,2.57,1.11,2.57,2.91v8.54h3.66Z" style="fill:#001042;"/><path d="M178.45,14.9c1.23,0,2.12-.87,2.12-2.07s-.87-2.07-2.12-2.07-2.12,.85-2.12,2.07,.89,2.07,2.12,2.07Z" style="fill:#001042;"/><rect x="176.65" y="17.77" width="3.66" height="14.25" style="fill:#001042;"/><path d="M191.03,23.54l-1.64-.34c-1.01-.22-1.57-.7-1.57-1.35,0-.44,.22-1.45,2.21-1.45,1.38,0,3.08,.37,4.59,1v-3.21c-1.33-.56-3.03-.9-4.56-.9-3.53,0-5.81,1.79-5.81,4.56,0,2.3,1.32,3.72,3.92,4.2l1.7,.33c1.33,.25,1.61,.92,1.61,1.45,0,.56-.3,1.51-2.27,1.51-1.41,0-3.27-.46-4.92-1.2v3.4c1.69,.63,3.33,.94,4.86,.94,3.8,0,6.17-1.79,6.17-4.68,0-2.38-1.32-3.7-4.29-4.26Z" style="fill:#001042;"/><path d="M205.13,23.54l-1.64-.34c-1.01-.22-1.57-.69-1.57-1.35,0-.44,.22-1.45,2.21-1.45,1.38,0,3.08,.37,4.59,1v-3.21c-1.33-.56-3.02-.9-4.56-.9-3.53,0-5.8,1.79-5.8,4.56,0,2.3,1.32,3.72,3.92,4.2l1.7,.33c1.33,.25,1.61,.92,1.61,1.45,0,.56-.29,1.51-2.27,1.51-1.41,0-3.27-.46-4.93-1.2v3.4c1.69,.63,3.33,.94,4.86,.94,3.8,0,6.17-1.79,6.17-4.68,0-2.38-1.32-3.7-4.29-4.26Z" style="fill:#001042;"/><rect x="213.12" y="17.77" width="3.66" height="14.25" style="fill:#001042;"/><path d="M214.92,14.9c1.23,0,2.12-.87,2.12-2.07s-.87-2.07-2.12-2.07-2.12,.85-2.12,2.07,.89,2.07,2.12,2.07Z" style="fill:#001042;"/><path d="M228.05,17.29c-4.51,0-7.78,3.18-7.78,7.57s3.27,7.63,7.78,7.63,7.81-3.21,7.81-7.63-3.28-7.57-7.81-7.57Zm0,11.78c-2.34,0-3.97-1.73-3.97-4.21s1.63-4.18,3.97-4.18,4,1.72,4,4.18-1.65,4.21-4,4.21Z" style="fill:#001042;"/><path d="M247.41,17.29c-1.57,0-2.9,.53-3.95,1.58l-.51,.51v-1.61h-3.59v14.25h3.66v-9.7l.06-.08c.81-1.09,1.86-1.67,3.03-1.67,1.64,0,2.79,1.19,2.79,2.91v8.54h3.66v-9.6c0-3.37-2.58-5.14-5.14-5.14Z" style="fill:#001042;"/><path d="M95.47,47.28c-1.57-1.57-2.96-1.93-4.45-1.93-3.87,0-6.69,3.18-6.69,7.57s2.81,7.63,6.69,7.63c1.68,0,3.11-.65,4.45-1.94v1.48h3.66v-20.51h-3.66v7.7Zm0,8.05c-.94,1.19-2.21,1.81-3.45,1.81-2.32,0-3.88-1.69-3.88-4.21s1.59-4.18,3.88-4.18c1.27,0,2.55,.64,3.45,1.8v4.79Z" style="fill:#001042;"/><path d="M110.06,45.35c-4.24,0-7.32,3.16-7.32,7.5,0,5.31,3.77,7.69,7.51,7.69,2.93,0,4.58-.77,5.8-1.54v-2.97c-1.81,1.11-3.43,1.58-5.35,1.58-2.02,0-4.13-1.19-4.13-3.75h10.54c.02-.29,.04-.68,.04-.95,0-4.6-2.78-7.57-7.08-7.57Zm-3.41,6.25c0-1.7,1.32-3.33,3.41-3.33h0c2.68,0,3.41,2.01,3.41,3.33h-6.83Z" style="fill:#001042;"/><path d="M127.06,51.6l-1.64-.33c-1.01-.22-1.57-.7-1.57-1.35,0-.44,.22-1.45,2.21-1.45,1.38,0,3.08,.37,4.59,1v-3.21c-1.33-.56-3.02-.9-4.56-.9-3.53,0-5.8,1.79-5.8,4.56,0,2.3,1.32,3.72,3.92,4.2l1.7,.33c1.33,.25,1.61,.92,1.61,1.45,0,.56-.3,1.51-2.27,1.51-1.41,0-3.27-.46-4.92-1.2v3.4c1.69,.63,3.33,.94,4.86,.94,3.8,0,6.17-1.79,6.17-4.68,0-2.38-1.32-3.7-4.29-4.26Z" style="fill:#001042;"/><path d="M179.35,45.35c-4.51,0-7.78,3.18-7.78,7.57s3.27,7.63,7.78,7.63,7.81-3.21,7.81-7.63-3.28-7.57-7.81-7.57Zm0,11.78c-2.34,0-3.97-1.73-3.97-4.21s1.63-4.18,3.97-4.18,4,1.72,4,4.18-1.65,4.21-4,4.21Z" style="fill:#001042;"/><path d="M192.45,38.82c-1.25,0-2.12,.85-2.12,2.07s.89,2.07,2.12,2.07,2.12-.87,2.12-2.07-.87-2.07-2.12-2.07Z" style="fill:#001042;"/><rect x="190.65" y="45.84" width="3.66" height="14.25" style="fill:#001042;"/><path d="M203.39,40.84l-3.5,1.92v3.07h-2.67v2.93h2.52v7.25c0,4.09,3.3,4.53,4.71,4.53,.92,0,1.81-.16,2.25-.27v-3.07c-.33,.07-.63,.1-.92,.1-1.56,0-2.39-.8-2.39-2.3v-6.25h3.31v-2.93h-3.31v-4.99Z" style="fill:#001042;"/><path d="M216.7,51.6l-1.64-.33c-1.01-.22-1.57-.7-1.57-1.35,0-.44,.22-1.45,2.21-1.45,1.38,0,3.08,.37,4.59,1v-3.21c-1.33-.56-3.02-.9-4.56-.9-3.53,0-5.8,1.79-5.8,4.56,0,2.3,1.32,3.72,3.92,4.2l1.7,.33c1.4,.26,1.61,1.02,1.61,1.45,0,.45-.22,1.51-2.27,1.51-1.41,0-3.27-.46-4.93-1.2v3.4c1.69,.63,3.33,.94,4.86,.94,3.81,0,6.17-1.79,6.17-4.68,0-2.38-1.32-3.7-4.29-4.26Z" style="fill:#001042;"/><path d="M164.49,48.19v-2.35h-3.66v14.25h3.66v-8.23c.39-1.54,1.91-2.85,3.75-2.85,.52,0,.9,.03,1.25,.08v-3.69c-.25-.03-.59-.06-.8-.06-1.87,0-3.49,1.25-4.2,2.84Z" style="fill:#001042;"/><path d="M142.5,23.49v8.54h3.66v-9.6c0-3.53-2.6-5.14-5.01-5.14-2.26,0-3.69,1.1-4.48,2.02l-.25,.3-.22-.32c-.85-1.27-2.33-1.99-4.03-1.99-1.56,0-2.82,.53-3.72,1.57l-.52,.6v-1.68h-3.59v14.25h3.66v-9.69l.05-.08c.73-1.1,1.71-1.68,2.83-1.68,1.59,0,2.57,1.11,2.57,2.91v8.54h3.66v-9.78l.06-.08c.74-1.04,1.69-1.58,2.76-1.58,1.61,0,2.6,1.11,2.6,2.91Z" style="fill:#001042;"/><path d="M152.72,47.28c-1.57-1.57-2.96-1.93-4.45-1.93-3.87,0-6.69,3.18-6.69,7.57s2.81,7.63,6.69,7.63c1.68,0,3.11-.65,4.45-1.94v1.48h3.66v-20.51h-3.66v7.7Zm0,8.05c-.94,1.19-2.21,1.81-3.45,1.81-2.32,0-3.88-1.69-3.88-4.21s1.59-4.18,3.88-4.18c1.27,0,2.55,.64,3.45,1.8v4.79Z" style="fill:#001042;"/></g></g></g></svg>